G75*
%MOIN*%
%OFA0B0*%
%FSLAX25Y25*%
%IPPOS*%
%LPD*%
%AMOC8*
5,1,8,0,0,1.08239X$1,22.5*
%
%ADD10C,0.16700*%
%ADD11C,0.07320*%
%ADD12C,0.08600*%
%ADD13C,0.13300*%
%ADD14C,0.08000*%
%ADD15C,0.03969*%
%ADD16C,0.03378*%
%ADD17C,0.17600*%
%ADD18C,0.04165*%
D10*
X0103300Y0103300D03*
D11*
X0123300Y0103300D03*
X0083300Y0103300D03*
D12*
X0088300Y0083300D03*
X0098300Y0083300D03*
X0108300Y0083300D03*
X0118300Y0083300D03*
D13*
X0088300Y0113300D03*
X0113300Y0123300D03*
D14*
X0113300Y0012300D03*
X0103300Y0012300D03*
X0093300Y0012300D03*
X0083300Y0012300D03*
X0123300Y0012300D03*
D15*
X0110300Y0161300D03*
D16*
X0099800Y0152300D03*
X0084800Y0172800D03*
X0094300Y0174300D03*
X0094300Y0177800D03*
X0097800Y0177800D03*
X0097800Y0174300D03*
X0072800Y0187800D03*
X0063800Y0187800D03*
X0056800Y0157300D03*
X0070800Y0157300D03*
X0040800Y0142800D03*
X0052800Y0127800D03*
X0040800Y0086800D03*
X0048300Y0067300D03*
X0067800Y0051300D03*
X0071800Y0051300D03*
X0072800Y0041800D03*
X0086800Y0051300D03*
X0102300Y0046300D03*
X0119300Y0051300D03*
X0127300Y0051300D03*
X0127300Y0067300D03*
X0119300Y0067300D03*
X0113300Y0069800D03*
X0135300Y0067300D03*
X0152800Y0041800D03*
X0165300Y0030300D03*
X0192300Y0067300D03*
X0184800Y0086800D03*
X0152300Y0103300D03*
X0152300Y0121300D03*
X0165800Y0142800D03*
X0184800Y0142800D03*
X0196800Y0127800D03*
X0164800Y0172800D03*
X0150300Y0187800D03*
X0133800Y0187800D03*
X0124300Y0172800D03*
X0086800Y0067800D03*
X0079300Y0067800D03*
X0118800Y0033300D03*
X0080300Y0022300D03*
D17*
X0034300Y0047300D03*
X0034300Y0159300D03*
X0172300Y0159300D03*
X0172300Y0047300D03*
D18*
X0153800Y0144300D03*
X0153800Y0148800D03*
X0090300Y0164300D03*
X0071800Y0149300D03*
X0071800Y0144300D03*
M02*
