G75*
%MOIN*%
%OFA0B0*%
%FSLAX25Y25*%
%IPPOS*%
%LPD*%
%AMOC8*
5,1,8,0,0,1.08239X$1,22.5*
%
%ADD10C,0.06450*%
%ADD11C,0.10350*%
%ADD12C,0.06000*%
%ADD13C,0.03369*%
%ADD14C,0.02778*%
%ADD15C,0.17000*%
%ADD16C,0.00600*%
%ADD17C,0.03565*%
D10*
X0088300Y0083300D03*
X0098300Y0083300D03*
X0108300Y0083300D03*
X0118300Y0083300D03*
D11*
X0088300Y0113300D03*
X0113300Y0123300D03*
D12*
X0113300Y0012300D03*
X0103300Y0012300D03*
X0093300Y0012300D03*
X0083300Y0012300D03*
X0123300Y0012300D03*
D13*
X0110300Y0161300D03*
D14*
X0099800Y0152300D03*
X0084800Y0172800D03*
X0094300Y0174300D03*
X0094300Y0177800D03*
X0097800Y0177800D03*
X0097800Y0174300D03*
X0072800Y0187800D03*
X0063800Y0187800D03*
X0056800Y0157300D03*
X0070800Y0157300D03*
X0040800Y0142800D03*
X0052800Y0127800D03*
X0040800Y0086800D03*
X0048300Y0067300D03*
X0067800Y0051300D03*
X0071800Y0051300D03*
X0072800Y0041800D03*
X0086800Y0051300D03*
X0102300Y0046300D03*
X0119300Y0051300D03*
X0127300Y0051300D03*
X0127300Y0067300D03*
X0119300Y0067300D03*
X0113300Y0069800D03*
X0135300Y0067300D03*
X0152800Y0041800D03*
X0165300Y0030300D03*
X0192300Y0067300D03*
X0184800Y0086800D03*
X0152300Y0103300D03*
X0152300Y0121300D03*
X0165800Y0142800D03*
X0184800Y0142800D03*
X0196800Y0127800D03*
X0164800Y0172800D03*
X0150300Y0187800D03*
X0133800Y0187800D03*
X0124300Y0172800D03*
X0086800Y0067800D03*
X0079300Y0067800D03*
X0118800Y0033300D03*
X0080300Y0022300D03*
D15*
X0034300Y0047300D03*
X0034300Y0159300D03*
X0172300Y0159300D03*
X0172300Y0047300D03*
D16*
X0035044Y0032909D02*
X0029319Y0039189D01*
X0032430Y0037900D01*
X0036170Y0037900D01*
X0039625Y0039331D01*
X0042269Y0041975D01*
X0043700Y0045430D01*
X0043700Y0049170D01*
X0042269Y0052625D01*
X0039625Y0055269D01*
X0036170Y0056700D01*
X0032430Y0056700D01*
X0028975Y0055269D01*
X0026331Y0052625D01*
X0024900Y0049170D01*
X0024900Y0045430D01*
X0025658Y0043601D01*
X0019936Y0051683D01*
X0014225Y0062319D01*
X0009864Y0073576D01*
X0006919Y0085283D01*
X0005436Y0097264D01*
X0005436Y0109336D01*
X0006919Y0121317D01*
X0009864Y0133024D01*
X0014225Y0144281D01*
X0019936Y0154917D01*
X0025658Y0162999D01*
X0024900Y0161170D01*
X0024900Y0157430D01*
X0026331Y0153975D01*
X0028975Y0151331D01*
X0032430Y0149900D01*
X0036170Y0149900D01*
X0039625Y0151331D01*
X0042269Y0153975D01*
X0043700Y0157430D01*
X0043700Y0161170D01*
X0042269Y0164625D01*
X0039625Y0167269D01*
X0036170Y0168700D01*
X0032430Y0168700D01*
X0029319Y0167411D01*
X0035044Y0173691D01*
X0044212Y0181546D01*
X0054275Y0188214D01*
X0065081Y0193595D01*
X0076467Y0197607D01*
X0088260Y0200190D01*
X0100281Y0201303D01*
X0112347Y0200932D01*
X0124276Y0199080D01*
X0135887Y0195776D01*
X0147005Y0191071D01*
X0149115Y0189852D01*
X0148011Y0188748D01*
X0148011Y0186852D01*
X0149352Y0185511D01*
X0151248Y0185511D01*
X0152589Y0186852D01*
X0152589Y0187847D01*
X0157459Y0185035D01*
X0167093Y0177760D01*
X0175760Y0169356D01*
X0177346Y0167384D01*
X0174170Y0168700D01*
X0170430Y0168700D01*
X0166975Y0167269D01*
X0164331Y0164625D01*
X0162900Y0161170D01*
X0162900Y0157430D01*
X0164331Y0153975D01*
X0166975Y0151331D01*
X0170430Y0149900D01*
X0174170Y0149900D01*
X0177625Y0151331D01*
X0180269Y0153975D01*
X0181700Y0157430D01*
X0181700Y0161170D01*
X0181013Y0162827D01*
X0183328Y0159951D01*
X0189683Y0149687D01*
X0194729Y0138720D01*
X0198389Y0127216D01*
X0200607Y0115349D01*
X0201350Y0103300D01*
X0200607Y0091251D01*
X0200607Y0091251D01*
X0198389Y0079384D01*
X0194729Y0067880D01*
X0189683Y0056913D01*
X0183328Y0046649D01*
X0181013Y0043773D01*
X0181700Y0045430D01*
X0181700Y0049170D01*
X0180269Y0052625D01*
X0177625Y0055269D01*
X0174170Y0056700D01*
X0170430Y0056700D01*
X0166975Y0055269D01*
X0164331Y0052625D01*
X0162900Y0049170D01*
X0162900Y0045430D01*
X0164331Y0041975D01*
X0166975Y0039331D01*
X0170430Y0037900D01*
X0174170Y0037900D01*
X0177346Y0039216D01*
X0175760Y0037244D01*
X0175760Y0037244D01*
X0167093Y0028840D01*
X0157459Y0021565D01*
X0147005Y0015529D01*
X0135887Y0010824D01*
X0124276Y0007520D01*
X0112347Y0005668D01*
X0100281Y0005296D01*
X0088260Y0006410D01*
X0076467Y0008993D01*
X0065081Y0013005D01*
X0054275Y0018386D01*
X0044212Y0025054D01*
X0035044Y0032909D01*
X0034755Y0033226D02*
X0171616Y0033226D01*
X0172233Y0033824D02*
X0034210Y0033824D01*
X0033664Y0034423D02*
X0172850Y0034423D01*
X0173467Y0035021D02*
X0033118Y0035021D01*
X0032573Y0035620D02*
X0174084Y0035620D01*
X0174702Y0036218D02*
X0032027Y0036218D01*
X0031482Y0036817D02*
X0175319Y0036817D01*
X0175897Y0037415D02*
X0030936Y0037415D01*
X0030390Y0038014D02*
X0032156Y0038014D01*
X0030711Y0038612D02*
X0029845Y0038612D01*
X0036444Y0038014D02*
X0170156Y0038014D01*
X0168711Y0038612D02*
X0037889Y0038612D01*
X0039334Y0039211D02*
X0167266Y0039211D01*
X0166497Y0039809D02*
X0154046Y0039809D01*
X0153748Y0039511D02*
X0155089Y0040852D01*
X0155089Y0042748D01*
X0153748Y0044089D01*
X0151852Y0044089D01*
X0150511Y0042748D01*
X0150511Y0040852D01*
X0151852Y0039511D01*
X0153748Y0039511D01*
X0154645Y0040408D02*
X0165899Y0040408D01*
X0165300Y0041006D02*
X0155089Y0041006D01*
X0155089Y0041605D02*
X0164702Y0041605D01*
X0164237Y0042203D02*
X0155089Y0042203D01*
X0155035Y0042802D02*
X0163989Y0042802D01*
X0163741Y0043400D02*
X0154437Y0043400D01*
X0153838Y0043999D02*
X0163493Y0043999D01*
X0163245Y0044597D02*
X0142709Y0044597D01*
X0143307Y0045196D02*
X0162997Y0045196D01*
X0162900Y0045794D02*
X0143500Y0045794D01*
X0143500Y0045389D02*
X0143500Y0070211D01*
X0142211Y0071500D01*
X0139711Y0074000D01*
X0081711Y0074000D01*
X0077000Y0078711D01*
X0077000Y0151211D01*
X0075711Y0152500D01*
X0074711Y0153500D01*
X0063889Y0153500D01*
X0061600Y0151211D01*
X0061600Y0044889D01*
X0062889Y0043600D01*
X0064889Y0041600D01*
X0070511Y0041600D01*
X0070511Y0040852D01*
X0071852Y0039511D01*
X0073748Y0039511D01*
X0075089Y0040852D01*
X0075089Y0041600D01*
X0139711Y0041600D01*
X0141000Y0042889D01*
X0143500Y0045389D01*
X0143500Y0046393D02*
X0162900Y0046393D01*
X0162900Y0046991D02*
X0143500Y0046991D01*
X0143500Y0047590D02*
X0162900Y0047590D01*
X0162900Y0048188D02*
X0143500Y0048188D01*
X0143500Y0048787D02*
X0162900Y0048787D01*
X0162989Y0049385D02*
X0143500Y0049385D01*
X0143500Y0049984D02*
X0163237Y0049984D01*
X0163485Y0050582D02*
X0143500Y0050582D01*
X0143500Y0051181D02*
X0163733Y0051181D01*
X0163981Y0051779D02*
X0143500Y0051779D01*
X0143500Y0052378D02*
X0164229Y0052378D01*
X0164683Y0052976D02*
X0143500Y0052976D01*
X0143500Y0053575D02*
X0165281Y0053575D01*
X0165880Y0054173D02*
X0143500Y0054173D01*
X0143500Y0054772D02*
X0166478Y0054772D01*
X0167221Y0055370D02*
X0143500Y0055370D01*
X0143500Y0055969D02*
X0168665Y0055969D01*
X0170110Y0056568D02*
X0143500Y0056568D01*
X0143500Y0057166D02*
X0189800Y0057166D01*
X0190075Y0057765D02*
X0143500Y0057765D01*
X0143500Y0058363D02*
X0190350Y0058363D01*
X0190626Y0058962D02*
X0143500Y0058962D01*
X0143500Y0059560D02*
X0190901Y0059560D01*
X0191176Y0060159D02*
X0143500Y0060159D01*
X0143500Y0060757D02*
X0191452Y0060757D01*
X0191727Y0061356D02*
X0143500Y0061356D01*
X0143500Y0061954D02*
X0192002Y0061954D01*
X0192278Y0062553D02*
X0143500Y0062553D01*
X0143500Y0063151D02*
X0192553Y0063151D01*
X0192829Y0063750D02*
X0143500Y0063750D01*
X0143500Y0064348D02*
X0193104Y0064348D01*
X0193379Y0064947D02*
X0143500Y0064947D01*
X0143500Y0065545D02*
X0193655Y0065545D01*
X0193930Y0066144D02*
X0143500Y0066144D01*
X0143500Y0066742D02*
X0194205Y0066742D01*
X0194481Y0067341D02*
X0143500Y0067341D01*
X0143500Y0067939D02*
X0194748Y0067939D01*
X0194938Y0068538D02*
X0143500Y0068538D01*
X0143500Y0069136D02*
X0195128Y0069136D01*
X0195319Y0069735D02*
X0143500Y0069735D01*
X0143378Y0070333D02*
X0195509Y0070333D01*
X0195700Y0070932D02*
X0142779Y0070932D01*
X0142181Y0071530D02*
X0195890Y0071530D01*
X0196080Y0072129D02*
X0141582Y0072129D01*
X0140984Y0072727D02*
X0196271Y0072727D01*
X0196461Y0073326D02*
X0140385Y0073326D01*
X0139787Y0073924D02*
X0196652Y0073924D01*
X0196842Y0074523D02*
X0081188Y0074523D01*
X0080590Y0075121D02*
X0197032Y0075121D01*
X0197223Y0075720D02*
X0079991Y0075720D01*
X0079393Y0076318D02*
X0197413Y0076318D01*
X0197604Y0076917D02*
X0078794Y0076917D01*
X0078196Y0077515D02*
X0197794Y0077515D01*
X0197984Y0078114D02*
X0077597Y0078114D01*
X0077000Y0078712D02*
X0198175Y0078712D01*
X0198365Y0079311D02*
X0119449Y0079311D01*
X0119121Y0079175D02*
X0120637Y0079803D01*
X0121797Y0080963D01*
X0122425Y0082479D01*
X0122425Y0084121D01*
X0121797Y0085637D01*
X0120637Y0086797D01*
X0119121Y0087425D01*
X0117479Y0087425D01*
X0115963Y0086797D01*
X0114803Y0085637D01*
X0114175Y0084121D01*
X0114175Y0082479D01*
X0114803Y0080963D01*
X0115963Y0079803D01*
X0117479Y0079175D01*
X0119121Y0079175D01*
X0120743Y0079909D02*
X0198487Y0079909D01*
X0198599Y0080508D02*
X0121342Y0080508D01*
X0121856Y0081106D02*
X0198711Y0081106D01*
X0198822Y0081705D02*
X0122104Y0081705D01*
X0122352Y0082303D02*
X0198934Y0082303D01*
X0199046Y0082902D02*
X0122425Y0082902D01*
X0122425Y0083501D02*
X0199158Y0083501D01*
X0199270Y0084099D02*
X0122425Y0084099D01*
X0122186Y0084698D02*
X0183665Y0084698D01*
X0183852Y0084511D02*
X0185748Y0084511D01*
X0187089Y0085852D01*
X0187089Y0087748D01*
X0185748Y0089089D01*
X0183852Y0089089D01*
X0182511Y0087748D01*
X0182511Y0085852D01*
X0183852Y0084511D01*
X0183067Y0085296D02*
X0121938Y0085296D01*
X0121539Y0085895D02*
X0182511Y0085895D01*
X0182511Y0086493D02*
X0120941Y0086493D01*
X0119925Y0087092D02*
X0182511Y0087092D01*
X0182511Y0087690D02*
X0077000Y0087690D01*
X0077000Y0087092D02*
X0086675Y0087092D01*
X0085963Y0086797D02*
X0084803Y0085637D01*
X0084175Y0084121D01*
X0084175Y0082479D01*
X0084803Y0080963D01*
X0085963Y0079803D01*
X0087479Y0079175D01*
X0089121Y0079175D01*
X0090637Y0079803D01*
X0091797Y0080963D01*
X0092425Y0082479D01*
X0092425Y0084121D01*
X0091797Y0085637D01*
X0090637Y0086797D01*
X0089121Y0087425D01*
X0087479Y0087425D01*
X0085963Y0086797D01*
X0085659Y0086493D02*
X0077000Y0086493D01*
X0077000Y0085895D02*
X0085061Y0085895D01*
X0084662Y0085296D02*
X0077000Y0085296D01*
X0077000Y0084698D02*
X0084414Y0084698D01*
X0084175Y0084099D02*
X0077000Y0084099D01*
X0077000Y0083501D02*
X0084175Y0083501D01*
X0084175Y0082902D02*
X0077000Y0082902D01*
X0077000Y0082303D02*
X0084248Y0082303D01*
X0084496Y0081705D02*
X0077000Y0081705D01*
X0077000Y0081106D02*
X0084744Y0081106D01*
X0085258Y0080508D02*
X0077000Y0080508D01*
X0077000Y0079909D02*
X0085857Y0079909D01*
X0087151Y0079311D02*
X0077000Y0079311D01*
X0074800Y0079311D02*
X0063800Y0079311D01*
X0063800Y0079909D02*
X0074800Y0079909D01*
X0074800Y0080508D02*
X0063800Y0080508D01*
X0063800Y0081106D02*
X0074800Y0081106D01*
X0074800Y0081705D02*
X0063800Y0081705D01*
X0063800Y0082303D02*
X0074800Y0082303D01*
X0074800Y0082902D02*
X0063800Y0082902D01*
X0063800Y0083501D02*
X0074800Y0083501D01*
X0074800Y0084099D02*
X0063800Y0084099D01*
X0063800Y0084698D02*
X0074800Y0084698D01*
X0074800Y0085296D02*
X0063800Y0085296D01*
X0063800Y0085895D02*
X0074800Y0085895D01*
X0074800Y0086493D02*
X0063800Y0086493D01*
X0063800Y0087092D02*
X0074800Y0087092D01*
X0074800Y0087690D02*
X0063800Y0087690D01*
X0063800Y0088289D02*
X0074800Y0088289D01*
X0074800Y0088887D02*
X0063800Y0088887D01*
X0063800Y0089486D02*
X0074800Y0089486D01*
X0074800Y0090084D02*
X0063800Y0090084D01*
X0063800Y0090683D02*
X0074800Y0090683D01*
X0074800Y0091281D02*
X0063800Y0091281D01*
X0063800Y0091880D02*
X0074800Y0091880D01*
X0074800Y0092478D02*
X0063800Y0092478D01*
X0063800Y0093077D02*
X0074800Y0093077D01*
X0074800Y0093675D02*
X0063800Y0093675D01*
X0063800Y0094274D02*
X0074800Y0094274D01*
X0074800Y0094872D02*
X0063800Y0094872D01*
X0063800Y0095471D02*
X0074800Y0095471D01*
X0074800Y0096069D02*
X0063800Y0096069D01*
X0063800Y0096668D02*
X0074800Y0096668D01*
X0074800Y0097266D02*
X0063800Y0097266D01*
X0063800Y0097865D02*
X0074800Y0097865D01*
X0074800Y0098463D02*
X0063800Y0098463D01*
X0063800Y0099062D02*
X0074800Y0099062D01*
X0074800Y0099660D02*
X0063800Y0099660D01*
X0063800Y0100259D02*
X0074800Y0100259D01*
X0074800Y0100857D02*
X0063800Y0100857D01*
X0063800Y0101456D02*
X0074800Y0101456D01*
X0074800Y0102054D02*
X0063800Y0102054D01*
X0063800Y0102653D02*
X0074800Y0102653D01*
X0074800Y0103251D02*
X0063800Y0103251D01*
X0063800Y0103850D02*
X0074800Y0103850D01*
X0074800Y0104448D02*
X0063800Y0104448D01*
X0063800Y0105047D02*
X0074800Y0105047D01*
X0074800Y0105645D02*
X0063800Y0105645D01*
X0063800Y0106244D02*
X0074800Y0106244D01*
X0074800Y0106842D02*
X0063800Y0106842D01*
X0063800Y0107441D02*
X0074800Y0107441D01*
X0074800Y0108039D02*
X0063800Y0108039D01*
X0063800Y0108638D02*
X0074800Y0108638D01*
X0074800Y0109237D02*
X0063800Y0109237D01*
X0063800Y0109835D02*
X0074800Y0109835D01*
X0074800Y0110434D02*
X0063800Y0110434D01*
X0063800Y0111032D02*
X0074800Y0111032D01*
X0074800Y0111631D02*
X0063800Y0111631D01*
X0063800Y0112229D02*
X0074800Y0112229D01*
X0074800Y0112828D02*
X0063800Y0112828D01*
X0063800Y0113426D02*
X0074800Y0113426D01*
X0074800Y0114025D02*
X0063800Y0114025D01*
X0063800Y0114623D02*
X0074800Y0114623D01*
X0074800Y0115222D02*
X0063800Y0115222D01*
X0063800Y0115820D02*
X0074800Y0115820D01*
X0074800Y0116419D02*
X0063800Y0116419D01*
X0063800Y0117017D02*
X0074800Y0117017D01*
X0074800Y0117616D02*
X0063800Y0117616D01*
X0063800Y0118214D02*
X0074800Y0118214D01*
X0074800Y0118813D02*
X0063800Y0118813D01*
X0063800Y0119411D02*
X0074800Y0119411D01*
X0074800Y0120010D02*
X0063800Y0120010D01*
X0063800Y0120608D02*
X0074800Y0120608D01*
X0074800Y0121207D02*
X0063800Y0121207D01*
X0063800Y0121805D02*
X0074800Y0121805D01*
X0074800Y0122404D02*
X0063800Y0122404D01*
X0063800Y0123002D02*
X0074800Y0123002D01*
X0074800Y0123601D02*
X0063800Y0123601D01*
X0063800Y0124199D02*
X0074800Y0124199D01*
X0074800Y0124798D02*
X0063800Y0124798D01*
X0063800Y0125396D02*
X0074800Y0125396D01*
X0074800Y0125995D02*
X0063800Y0125995D01*
X0063800Y0126593D02*
X0074800Y0126593D01*
X0074800Y0127192D02*
X0063800Y0127192D01*
X0063800Y0127790D02*
X0074800Y0127790D01*
X0074800Y0128389D02*
X0063800Y0128389D01*
X0063800Y0128987D02*
X0074800Y0128987D01*
X0074800Y0129586D02*
X0063800Y0129586D01*
X0063800Y0130184D02*
X0074800Y0130184D01*
X0074800Y0130783D02*
X0063800Y0130783D01*
X0063800Y0131381D02*
X0074800Y0131381D01*
X0074800Y0131980D02*
X0063800Y0131980D01*
X0063800Y0132578D02*
X0074800Y0132578D01*
X0074800Y0133177D02*
X0063800Y0133177D01*
X0063800Y0133775D02*
X0074800Y0133775D01*
X0074800Y0134374D02*
X0063800Y0134374D01*
X0063800Y0134972D02*
X0074800Y0134972D01*
X0074800Y0135571D02*
X0063800Y0135571D01*
X0063800Y0136170D02*
X0074800Y0136170D01*
X0074800Y0136768D02*
X0063800Y0136768D01*
X0063800Y0137367D02*
X0074800Y0137367D01*
X0074800Y0137965D02*
X0063800Y0137965D01*
X0063800Y0138564D02*
X0074800Y0138564D01*
X0074800Y0139162D02*
X0063800Y0139162D01*
X0063800Y0139761D02*
X0074800Y0139761D01*
X0074800Y0140359D02*
X0063800Y0140359D01*
X0063800Y0140958D02*
X0074800Y0140958D01*
X0074800Y0141556D02*
X0063800Y0141556D01*
X0063800Y0142155D02*
X0074800Y0142155D01*
X0074800Y0142753D02*
X0063800Y0142753D01*
X0063800Y0143352D02*
X0074800Y0143352D01*
X0074800Y0143950D02*
X0063800Y0143950D01*
X0063800Y0144549D02*
X0074800Y0144549D01*
X0074800Y0145147D02*
X0063800Y0145147D01*
X0063800Y0145746D02*
X0074800Y0145746D01*
X0074800Y0146344D02*
X0063800Y0146344D01*
X0063800Y0146943D02*
X0074800Y0146943D01*
X0074800Y0147541D02*
X0063800Y0147541D01*
X0063800Y0148140D02*
X0074800Y0148140D01*
X0074800Y0148738D02*
X0063800Y0148738D01*
X0063800Y0149337D02*
X0074800Y0149337D01*
X0074800Y0149935D02*
X0063800Y0149935D01*
X0063800Y0150300D02*
X0064800Y0151300D01*
X0073800Y0151300D01*
X0074800Y0150300D01*
X0074800Y0077800D01*
X0080800Y0071800D01*
X0138800Y0071800D01*
X0141300Y0069300D01*
X0141300Y0046300D01*
X0138800Y0043800D01*
X0075451Y0043800D01*
X0074663Y0044588D01*
X0073454Y0045089D01*
X0072146Y0045089D01*
X0070937Y0044588D01*
X0070149Y0043800D01*
X0065800Y0043800D01*
X0063800Y0045800D01*
X0063800Y0150300D01*
X0064034Y0150534D02*
X0074566Y0150534D01*
X0073968Y0151132D02*
X0064632Y0151132D01*
X0063317Y0152928D02*
X0041221Y0152928D01*
X0040623Y0152329D02*
X0062718Y0152329D01*
X0062120Y0151731D02*
X0040024Y0151731D01*
X0039145Y0151132D02*
X0061600Y0151132D01*
X0061600Y0150534D02*
X0037700Y0150534D01*
X0036255Y0149935D02*
X0061600Y0149935D01*
X0061600Y0149337D02*
X0016940Y0149337D01*
X0017261Y0149935D02*
X0032345Y0149935D01*
X0030900Y0150534D02*
X0017583Y0150534D01*
X0017904Y0151132D02*
X0029455Y0151132D01*
X0028576Y0151731D02*
X0018225Y0151731D01*
X0018547Y0152329D02*
X0027977Y0152329D01*
X0027379Y0152928D02*
X0018868Y0152928D01*
X0019190Y0153526D02*
X0026780Y0153526D01*
X0026269Y0154125D02*
X0019511Y0154125D01*
X0019832Y0154723D02*
X0026021Y0154723D01*
X0025773Y0155322D02*
X0020223Y0155322D01*
X0020647Y0155920D02*
X0025525Y0155920D01*
X0025277Y0156519D02*
X0021070Y0156519D01*
X0021494Y0157117D02*
X0025030Y0157117D01*
X0024900Y0157716D02*
X0021918Y0157716D01*
X0022341Y0158314D02*
X0024900Y0158314D01*
X0024900Y0158913D02*
X0022765Y0158913D01*
X0023189Y0159511D02*
X0024900Y0159511D01*
X0024900Y0160110D02*
X0023612Y0160110D01*
X0024036Y0160708D02*
X0024900Y0160708D01*
X0024957Y0161307D02*
X0024460Y0161307D01*
X0024883Y0161905D02*
X0025205Y0161905D01*
X0025307Y0162504D02*
X0025453Y0162504D01*
X0029756Y0167891D02*
X0030476Y0167891D01*
X0030302Y0168489D02*
X0031921Y0168489D01*
X0030847Y0169088D02*
X0175976Y0169088D01*
X0176457Y0168489D02*
X0174679Y0168489D01*
X0175419Y0169686D02*
X0031393Y0169686D01*
X0031939Y0170285D02*
X0174802Y0170285D01*
X0174185Y0170883D02*
X0125620Y0170883D01*
X0125248Y0170511D02*
X0126589Y0171852D01*
X0126589Y0173748D01*
X0125248Y0175089D01*
X0123352Y0175089D01*
X0122011Y0173748D01*
X0122011Y0171852D01*
X0123352Y0170511D01*
X0125248Y0170511D01*
X0126219Y0171482D02*
X0173567Y0171482D01*
X0172950Y0172080D02*
X0126589Y0172080D01*
X0126589Y0172679D02*
X0172333Y0172679D01*
X0171716Y0173277D02*
X0126589Y0173277D01*
X0126461Y0173876D02*
X0171099Y0173876D01*
X0170481Y0174474D02*
X0125863Y0174474D01*
X0125264Y0175073D02*
X0169864Y0175073D01*
X0169247Y0175671D02*
X0099666Y0175671D01*
X0099287Y0176050D02*
X0100089Y0176852D01*
X0100089Y0178748D01*
X0098748Y0180089D01*
X0096852Y0180089D01*
X0096050Y0179287D01*
X0095248Y0180089D01*
X0093352Y0180089D01*
X0092011Y0178748D01*
X0092011Y0176852D01*
X0092813Y0176050D01*
X0092011Y0175248D01*
X0092011Y0173352D01*
X0093352Y0172011D01*
X0095248Y0172011D01*
X0096050Y0172813D01*
X0096852Y0172011D01*
X0098748Y0172011D01*
X0100089Y0173352D01*
X0100089Y0175248D01*
X0099287Y0176050D01*
X0099507Y0176270D02*
X0168630Y0176270D01*
X0168012Y0176868D02*
X0100089Y0176868D01*
X0100089Y0177467D02*
X0167395Y0177467D01*
X0166688Y0178065D02*
X0100089Y0178065D01*
X0100089Y0178664D02*
X0165896Y0178664D01*
X0165103Y0179262D02*
X0099575Y0179262D01*
X0098976Y0179861D02*
X0164311Y0179861D01*
X0163518Y0180459D02*
X0042944Y0180459D01*
X0042245Y0179861D02*
X0093124Y0179861D01*
X0092525Y0179262D02*
X0041547Y0179262D01*
X0040848Y0178664D02*
X0092011Y0178664D01*
X0092011Y0178065D02*
X0040149Y0178065D01*
X0039451Y0177467D02*
X0092011Y0177467D01*
X0092011Y0176868D02*
X0038752Y0176868D01*
X0038054Y0176270D02*
X0092593Y0176270D01*
X0092434Y0175671D02*
X0037355Y0175671D01*
X0036657Y0175073D02*
X0092011Y0175073D01*
X0092011Y0174474D02*
X0035958Y0174474D01*
X0035259Y0173876D02*
X0092011Y0173876D01*
X0092086Y0173277D02*
X0034667Y0173277D01*
X0034121Y0172679D02*
X0092684Y0172679D01*
X0093283Y0172080D02*
X0033575Y0172080D01*
X0033030Y0171482D02*
X0122381Y0171482D01*
X0122011Y0172080D02*
X0098817Y0172080D01*
X0099416Y0172679D02*
X0122011Y0172679D01*
X0122011Y0173277D02*
X0100014Y0173277D01*
X0100089Y0173876D02*
X0122139Y0173876D01*
X0122737Y0174474D02*
X0100089Y0174474D01*
X0100089Y0175073D02*
X0123336Y0175073D01*
X0122980Y0170883D02*
X0032484Y0170883D01*
X0036679Y0168489D02*
X0169921Y0168489D01*
X0168476Y0167891D02*
X0038124Y0167891D01*
X0039569Y0167292D02*
X0167031Y0167292D01*
X0166400Y0166694D02*
X0040200Y0166694D01*
X0040799Y0166095D02*
X0165801Y0166095D01*
X0165203Y0165497D02*
X0041397Y0165497D01*
X0041996Y0164898D02*
X0164604Y0164898D01*
X0164196Y0164300D02*
X0042404Y0164300D01*
X0042652Y0163701D02*
X0109344Y0163701D01*
X0109786Y0163884D02*
X0108836Y0163491D01*
X0108109Y0162764D01*
X0107716Y0161814D01*
X0107716Y0160786D01*
X0108109Y0159836D01*
X0108836Y0159109D01*
X0109786Y0158716D01*
X0110814Y0158716D01*
X0111764Y0159109D01*
X0112491Y0159836D01*
X0112884Y0160786D01*
X0112884Y0161814D01*
X0112491Y0162764D01*
X0111764Y0163491D01*
X0110814Y0163884D01*
X0109786Y0163884D01*
X0111256Y0163701D02*
X0163948Y0163701D01*
X0163701Y0163103D02*
X0112152Y0163103D01*
X0112598Y0162504D02*
X0163453Y0162504D01*
X0163205Y0161905D02*
X0112846Y0161905D01*
X0112884Y0161307D02*
X0162957Y0161307D01*
X0162900Y0160708D02*
X0112852Y0160708D01*
X0112604Y0160110D02*
X0162900Y0160110D01*
X0162900Y0159511D02*
X0112166Y0159511D01*
X0111290Y0158913D02*
X0162900Y0158913D01*
X0162900Y0158314D02*
X0043700Y0158314D01*
X0043700Y0157716D02*
X0162900Y0157716D01*
X0163030Y0157117D02*
X0043570Y0157117D01*
X0043323Y0156519D02*
X0163277Y0156519D01*
X0163525Y0155920D02*
X0043075Y0155920D01*
X0042827Y0155322D02*
X0163773Y0155322D01*
X0164021Y0154723D02*
X0042579Y0154723D01*
X0042331Y0154125D02*
X0164269Y0154125D01*
X0164780Y0153526D02*
X0041820Y0153526D01*
X0043700Y0158913D02*
X0109310Y0158913D01*
X0108434Y0159511D02*
X0043700Y0159511D01*
X0043700Y0160110D02*
X0107996Y0160110D01*
X0107748Y0160708D02*
X0043700Y0160708D01*
X0043643Y0161307D02*
X0107716Y0161307D01*
X0107754Y0161905D02*
X0043395Y0161905D01*
X0043147Y0162504D02*
X0108002Y0162504D01*
X0108448Y0163103D02*
X0042899Y0163103D01*
X0041748Y0145089D02*
X0039852Y0145089D01*
X0038511Y0143748D01*
X0038511Y0141852D01*
X0039852Y0140511D01*
X0041748Y0140511D01*
X0043089Y0141852D01*
X0043089Y0143748D01*
X0041748Y0145089D01*
X0042288Y0144549D02*
X0061600Y0144549D01*
X0061600Y0145147D02*
X0014690Y0145147D01*
X0014369Y0144549D02*
X0039312Y0144549D01*
X0038713Y0143950D02*
X0014097Y0143950D01*
X0013865Y0143352D02*
X0038511Y0143352D01*
X0038511Y0142753D02*
X0013633Y0142753D01*
X0013401Y0142155D02*
X0038511Y0142155D01*
X0038807Y0141556D02*
X0013169Y0141556D01*
X0012937Y0140958D02*
X0039405Y0140958D01*
X0042195Y0140958D02*
X0061600Y0140958D01*
X0061600Y0141556D02*
X0042793Y0141556D01*
X0043089Y0142155D02*
X0061600Y0142155D01*
X0061600Y0142753D02*
X0043089Y0142753D01*
X0043089Y0143352D02*
X0061600Y0143352D01*
X0061600Y0143950D02*
X0042887Y0143950D01*
X0061600Y0145746D02*
X0015011Y0145746D01*
X0015333Y0146344D02*
X0061600Y0146344D01*
X0061600Y0146943D02*
X0015654Y0146943D01*
X0015976Y0147541D02*
X0061600Y0147541D01*
X0061600Y0148140D02*
X0016297Y0148140D01*
X0016618Y0148738D02*
X0061600Y0148738D01*
X0061600Y0140359D02*
X0012706Y0140359D01*
X0012474Y0139761D02*
X0061600Y0139761D01*
X0061600Y0139162D02*
X0012242Y0139162D01*
X0012010Y0138564D02*
X0061600Y0138564D01*
X0061600Y0137965D02*
X0011778Y0137965D01*
X0011546Y0137367D02*
X0061600Y0137367D01*
X0061600Y0136768D02*
X0011314Y0136768D01*
X0011083Y0136170D02*
X0061600Y0136170D01*
X0061600Y0135571D02*
X0010851Y0135571D01*
X0010619Y0134972D02*
X0061600Y0134972D01*
X0061600Y0134374D02*
X0010387Y0134374D01*
X0010155Y0133775D02*
X0061600Y0133775D01*
X0061600Y0133177D02*
X0009923Y0133177D01*
X0009752Y0132578D02*
X0061600Y0132578D01*
X0061600Y0131980D02*
X0009601Y0131980D01*
X0009451Y0131381D02*
X0061600Y0131381D01*
X0061600Y0130783D02*
X0009300Y0130783D01*
X0009150Y0130184D02*
X0061600Y0130184D01*
X0061600Y0129586D02*
X0008999Y0129586D01*
X0008849Y0128987D02*
X0061600Y0128987D01*
X0061600Y0128389D02*
X0008698Y0128389D01*
X0008548Y0127790D02*
X0061600Y0127790D01*
X0061600Y0127192D02*
X0008397Y0127192D01*
X0008247Y0126593D02*
X0061600Y0126593D01*
X0061600Y0125995D02*
X0008096Y0125995D01*
X0007946Y0125396D02*
X0061600Y0125396D01*
X0061600Y0124798D02*
X0007795Y0124798D01*
X0007644Y0124199D02*
X0061600Y0124199D01*
X0061600Y0123601D02*
X0007494Y0123601D01*
X0007343Y0123002D02*
X0061600Y0123002D01*
X0061600Y0122404D02*
X0007193Y0122404D01*
X0007042Y0121805D02*
X0061600Y0121805D01*
X0061600Y0121207D02*
X0006906Y0121207D01*
X0006832Y0120608D02*
X0061600Y0120608D01*
X0061600Y0120010D02*
X0006758Y0120010D01*
X0006684Y0119411D02*
X0061600Y0119411D01*
X0061600Y0118813D02*
X0006609Y0118813D01*
X0006535Y0118214D02*
X0061600Y0118214D01*
X0061600Y0117616D02*
X0006461Y0117616D01*
X0006387Y0117017D02*
X0061600Y0117017D01*
X0061600Y0116419D02*
X0006313Y0116419D01*
X0006239Y0115820D02*
X0061600Y0115820D01*
X0061600Y0115222D02*
X0006165Y0115222D01*
X0006091Y0114623D02*
X0061600Y0114623D01*
X0061600Y0114025D02*
X0006017Y0114025D01*
X0005942Y0113426D02*
X0061600Y0113426D01*
X0061600Y0112828D02*
X0005868Y0112828D01*
X0005794Y0112229D02*
X0061600Y0112229D01*
X0061600Y0111631D02*
X0005720Y0111631D01*
X0005646Y0111032D02*
X0061600Y0111032D01*
X0061600Y0110434D02*
X0048515Y0110434D01*
X0048049Y0110900D02*
X0032551Y0110900D01*
X0031200Y0109549D01*
X0031200Y0109051D01*
X0031200Y0096551D01*
X0031551Y0096200D01*
X0032551Y0095200D01*
X0048049Y0095200D01*
X0048400Y0095551D01*
X0049400Y0096551D01*
X0049400Y0109549D01*
X0049049Y0109900D01*
X0048049Y0110900D01*
X0049113Y0109835D02*
X0061600Y0109835D01*
X0061600Y0109237D02*
X0049400Y0109237D01*
X0049400Y0108638D02*
X0061600Y0108638D01*
X0061600Y0108039D02*
X0049400Y0108039D01*
X0049400Y0107441D02*
X0061600Y0107441D01*
X0061600Y0106842D02*
X0049400Y0106842D01*
X0049400Y0106244D02*
X0061600Y0106244D01*
X0061600Y0105645D02*
X0049400Y0105645D01*
X0049400Y0105047D02*
X0061600Y0105047D01*
X0061600Y0104448D02*
X0049400Y0104448D01*
X0049400Y0103850D02*
X0061600Y0103850D01*
X0061600Y0103251D02*
X0049400Y0103251D01*
X0049400Y0102653D02*
X0061600Y0102653D01*
X0061600Y0102054D02*
X0049400Y0102054D01*
X0049400Y0101456D02*
X0061600Y0101456D01*
X0061600Y0100857D02*
X0049400Y0100857D01*
X0049400Y0100259D02*
X0061600Y0100259D01*
X0061600Y0099660D02*
X0049400Y0099660D01*
X0049400Y0099062D02*
X0061600Y0099062D01*
X0061600Y0098463D02*
X0049400Y0098463D01*
X0049400Y0097865D02*
X0061600Y0097865D01*
X0061600Y0097266D02*
X0049400Y0097266D01*
X0049400Y0096668D02*
X0061600Y0096668D01*
X0061600Y0096069D02*
X0048918Y0096069D01*
X0048319Y0095471D02*
X0061600Y0095471D01*
X0061600Y0094872D02*
X0005732Y0094872D01*
X0005806Y0094274D02*
X0061600Y0094274D01*
X0061600Y0093675D02*
X0005880Y0093675D01*
X0005954Y0093077D02*
X0061600Y0093077D01*
X0061600Y0092478D02*
X0006029Y0092478D01*
X0006103Y0091880D02*
X0061600Y0091880D01*
X0061600Y0091281D02*
X0006177Y0091281D01*
X0006251Y0090683D02*
X0061600Y0090683D01*
X0061600Y0090084D02*
X0006325Y0090084D01*
X0006399Y0089486D02*
X0061600Y0089486D01*
X0061600Y0088887D02*
X0041950Y0088887D01*
X0041748Y0089089D02*
X0039852Y0089089D01*
X0038511Y0087748D01*
X0038511Y0085852D01*
X0039852Y0084511D01*
X0041748Y0084511D01*
X0043089Y0085852D01*
X0043089Y0087748D01*
X0041748Y0089089D01*
X0042548Y0088289D02*
X0061600Y0088289D01*
X0061600Y0087690D02*
X0043089Y0087690D01*
X0043089Y0087092D02*
X0061600Y0087092D01*
X0061600Y0086493D02*
X0043089Y0086493D01*
X0043089Y0085895D02*
X0061600Y0085895D01*
X0061600Y0085296D02*
X0042533Y0085296D01*
X0041935Y0084698D02*
X0061600Y0084698D01*
X0061600Y0084099D02*
X0007217Y0084099D01*
X0007067Y0084698D02*
X0039665Y0084698D01*
X0039067Y0085296D02*
X0006918Y0085296D01*
X0006844Y0085895D02*
X0038511Y0085895D01*
X0038511Y0086493D02*
X0006770Y0086493D01*
X0006696Y0087092D02*
X0038511Y0087092D01*
X0038511Y0087690D02*
X0006621Y0087690D01*
X0006547Y0088289D02*
X0039052Y0088289D01*
X0039650Y0088887D02*
X0006473Y0088887D01*
X0007368Y0083501D02*
X0061600Y0083501D01*
X0061600Y0082902D02*
X0007518Y0082902D01*
X0007669Y0082303D02*
X0061600Y0082303D01*
X0061600Y0081705D02*
X0007819Y0081705D01*
X0007970Y0081106D02*
X0061600Y0081106D01*
X0061600Y0080508D02*
X0008121Y0080508D01*
X0008271Y0079909D02*
X0061600Y0079909D01*
X0061600Y0079311D02*
X0008422Y0079311D01*
X0008572Y0078712D02*
X0061600Y0078712D01*
X0061600Y0078114D02*
X0008723Y0078114D01*
X0008873Y0077515D02*
X0061600Y0077515D01*
X0061600Y0076917D02*
X0009024Y0076917D01*
X0009174Y0076318D02*
X0061600Y0076318D01*
X0061600Y0075720D02*
X0009325Y0075720D01*
X0009475Y0075121D02*
X0061600Y0075121D01*
X0061600Y0074523D02*
X0009626Y0074523D01*
X0009776Y0073924D02*
X0061600Y0073924D01*
X0061600Y0073326D02*
X0009961Y0073326D01*
X0010193Y0072727D02*
X0061600Y0072727D01*
X0061600Y0072129D02*
X0010425Y0072129D01*
X0010656Y0071530D02*
X0061600Y0071530D01*
X0061600Y0070932D02*
X0010888Y0070932D01*
X0011120Y0070333D02*
X0061600Y0070333D01*
X0061600Y0069735D02*
X0011352Y0069735D01*
X0011584Y0069136D02*
X0061600Y0069136D01*
X0061600Y0068538D02*
X0011816Y0068538D01*
X0012048Y0067939D02*
X0061600Y0067939D01*
X0061600Y0067341D02*
X0012280Y0067341D01*
X0012511Y0066742D02*
X0061600Y0066742D01*
X0061600Y0066144D02*
X0012743Y0066144D01*
X0012975Y0065545D02*
X0061600Y0065545D01*
X0061600Y0064947D02*
X0013207Y0064947D01*
X0013439Y0064348D02*
X0061600Y0064348D01*
X0061600Y0063750D02*
X0013671Y0063750D01*
X0013903Y0063151D02*
X0061600Y0063151D01*
X0061600Y0062553D02*
X0014134Y0062553D01*
X0014421Y0061954D02*
X0061600Y0061954D01*
X0061600Y0061356D02*
X0014742Y0061356D01*
X0015064Y0060757D02*
X0061600Y0060757D01*
X0061600Y0060159D02*
X0015385Y0060159D01*
X0015706Y0059560D02*
X0061600Y0059560D01*
X0061600Y0058962D02*
X0016028Y0058962D01*
X0016349Y0058363D02*
X0061600Y0058363D01*
X0061600Y0057765D02*
X0016671Y0057765D01*
X0016992Y0057166D02*
X0061600Y0057166D01*
X0061600Y0056568D02*
X0036490Y0056568D01*
X0037935Y0055969D02*
X0061600Y0055969D01*
X0061600Y0055370D02*
X0039379Y0055370D01*
X0040122Y0054772D02*
X0061600Y0054772D01*
X0061600Y0054173D02*
X0040720Y0054173D01*
X0041319Y0053575D02*
X0061600Y0053575D01*
X0061600Y0052976D02*
X0041917Y0052976D01*
X0042371Y0052378D02*
X0061600Y0052378D01*
X0061600Y0051779D02*
X0042619Y0051779D01*
X0042867Y0051181D02*
X0061600Y0051181D01*
X0061600Y0050582D02*
X0043115Y0050582D01*
X0043363Y0049984D02*
X0061600Y0049984D01*
X0061600Y0049385D02*
X0043611Y0049385D01*
X0043700Y0048787D02*
X0061600Y0048787D01*
X0061600Y0048188D02*
X0043700Y0048188D01*
X0043700Y0047590D02*
X0061600Y0047590D01*
X0061600Y0046991D02*
X0043700Y0046991D01*
X0043700Y0046393D02*
X0061600Y0046393D01*
X0061600Y0045794D02*
X0043700Y0045794D01*
X0043603Y0045196D02*
X0061600Y0045196D01*
X0061891Y0044597D02*
X0043355Y0044597D01*
X0043107Y0043999D02*
X0062490Y0043999D01*
X0063088Y0043400D02*
X0042859Y0043400D01*
X0042611Y0042802D02*
X0063687Y0042802D01*
X0064285Y0042203D02*
X0042363Y0042203D01*
X0041898Y0041605D02*
X0064884Y0041605D01*
X0065601Y0043999D02*
X0070347Y0043999D01*
X0070959Y0044597D02*
X0065003Y0044597D01*
X0064404Y0045196D02*
X0140196Y0045196D01*
X0140794Y0045794D02*
X0063806Y0045794D01*
X0063800Y0046393D02*
X0141300Y0046393D01*
X0141300Y0046991D02*
X0063800Y0046991D01*
X0063800Y0047590D02*
X0141300Y0047590D01*
X0141300Y0048188D02*
X0068882Y0048188D01*
X0068454Y0048011D02*
X0069663Y0048512D01*
X0070588Y0049437D01*
X0071089Y0050646D01*
X0071089Y0051954D01*
X0070588Y0053163D01*
X0069663Y0054088D01*
X0068454Y0054589D01*
X0067146Y0054589D01*
X0065937Y0054088D01*
X0065012Y0053163D01*
X0064511Y0051954D01*
X0064511Y0050646D01*
X0065012Y0049437D01*
X0065937Y0048512D01*
X0067146Y0048011D01*
X0068454Y0048011D01*
X0069938Y0048787D02*
X0141300Y0048787D01*
X0141300Y0049385D02*
X0070537Y0049385D01*
X0070815Y0049984D02*
X0141300Y0049984D01*
X0141300Y0050582D02*
X0071063Y0050582D01*
X0071089Y0051181D02*
X0141300Y0051181D01*
X0141300Y0051779D02*
X0071089Y0051779D01*
X0070913Y0052378D02*
X0141300Y0052378D01*
X0141300Y0052976D02*
X0070666Y0052976D01*
X0070176Y0053575D02*
X0141300Y0053575D01*
X0141300Y0054173D02*
X0069457Y0054173D01*
X0066143Y0054173D02*
X0063800Y0054173D01*
X0063800Y0053575D02*
X0065424Y0053575D01*
X0064934Y0052976D02*
X0063800Y0052976D01*
X0063800Y0052378D02*
X0064687Y0052378D01*
X0064511Y0051779D02*
X0063800Y0051779D01*
X0063800Y0051181D02*
X0064511Y0051181D01*
X0064537Y0050582D02*
X0063800Y0050582D01*
X0063800Y0049984D02*
X0064785Y0049984D01*
X0065063Y0049385D02*
X0063800Y0049385D01*
X0063800Y0048787D02*
X0065662Y0048787D01*
X0066718Y0048188D02*
X0063800Y0048188D01*
X0063800Y0054772D02*
X0141300Y0054772D01*
X0141300Y0055370D02*
X0063800Y0055370D01*
X0063800Y0055969D02*
X0141300Y0055969D01*
X0141300Y0056568D02*
X0063800Y0056568D01*
X0063800Y0057166D02*
X0141300Y0057166D01*
X0141300Y0057765D02*
X0063800Y0057765D01*
X0063800Y0058363D02*
X0141300Y0058363D01*
X0141300Y0058962D02*
X0063800Y0058962D01*
X0063800Y0059560D02*
X0141300Y0059560D01*
X0141300Y0060159D02*
X0063800Y0060159D01*
X0063800Y0060757D02*
X0141300Y0060757D01*
X0141300Y0061356D02*
X0063800Y0061356D01*
X0063800Y0061954D02*
X0141300Y0061954D01*
X0141300Y0062553D02*
X0063800Y0062553D01*
X0063800Y0063151D02*
X0141300Y0063151D01*
X0141300Y0063750D02*
X0063800Y0063750D01*
X0063800Y0064348D02*
X0117832Y0064348D01*
X0117437Y0064512D02*
X0118646Y0064011D01*
X0119954Y0064011D01*
X0121163Y0064512D01*
X0122088Y0065437D01*
X0122589Y0066646D01*
X0122589Y0067954D01*
X0122088Y0069163D01*
X0121163Y0070088D01*
X0119954Y0070589D01*
X0118646Y0070589D01*
X0117437Y0070088D01*
X0116512Y0069163D01*
X0116011Y0067954D01*
X0116011Y0066646D01*
X0116512Y0065437D01*
X0117437Y0064512D01*
X0117002Y0064947D02*
X0088506Y0064947D01*
X0088663Y0065012D02*
X0089588Y0065937D01*
X0090089Y0067146D01*
X0090089Y0068454D01*
X0089588Y0069663D01*
X0088663Y0070588D01*
X0087454Y0071089D01*
X0086146Y0071089D01*
X0084937Y0070588D01*
X0084012Y0069663D01*
X0083511Y0068454D01*
X0083511Y0067146D01*
X0084012Y0065937D01*
X0084937Y0065012D01*
X0086146Y0064511D01*
X0087454Y0064511D01*
X0088663Y0065012D01*
X0089196Y0065545D02*
X0116467Y0065545D01*
X0116219Y0066144D02*
X0089674Y0066144D01*
X0089922Y0066742D02*
X0116011Y0066742D01*
X0116011Y0067341D02*
X0090089Y0067341D01*
X0090089Y0067939D02*
X0116011Y0067939D01*
X0116253Y0068538D02*
X0090054Y0068538D01*
X0089806Y0069136D02*
X0116501Y0069136D01*
X0117083Y0069735D02*
X0089517Y0069735D01*
X0088918Y0070333D02*
X0118028Y0070333D01*
X0120572Y0070333D02*
X0126028Y0070333D01*
X0125437Y0070088D02*
X0126646Y0070589D01*
X0127954Y0070589D01*
X0129163Y0070088D01*
X0130088Y0069163D01*
X0130589Y0067954D01*
X0130589Y0066646D01*
X0130088Y0065437D01*
X0129163Y0064512D01*
X0127954Y0064011D01*
X0126646Y0064011D01*
X0125437Y0064512D01*
X0124512Y0065437D01*
X0124011Y0066646D01*
X0124011Y0067954D01*
X0124512Y0069163D01*
X0125437Y0070088D01*
X0125083Y0069735D02*
X0121517Y0069735D01*
X0122099Y0069136D02*
X0124501Y0069136D01*
X0124253Y0068538D02*
X0122347Y0068538D01*
X0122589Y0067939D02*
X0124011Y0067939D01*
X0124011Y0067341D02*
X0122589Y0067341D01*
X0122589Y0066742D02*
X0124011Y0066742D01*
X0124219Y0066144D02*
X0122381Y0066144D01*
X0122133Y0065545D02*
X0124467Y0065545D01*
X0125002Y0064947D02*
X0121598Y0064947D01*
X0120768Y0064348D02*
X0125832Y0064348D01*
X0128768Y0064348D02*
X0141300Y0064348D01*
X0141300Y0064947D02*
X0129598Y0064947D01*
X0130133Y0065545D02*
X0141300Y0065545D01*
X0141300Y0066144D02*
X0130381Y0066144D01*
X0130589Y0066742D02*
X0141300Y0066742D01*
X0141300Y0067341D02*
X0130589Y0067341D01*
X0130589Y0067939D02*
X0141300Y0067939D01*
X0141300Y0068538D02*
X0130347Y0068538D01*
X0130099Y0069136D02*
X0141300Y0069136D01*
X0140865Y0069735D02*
X0129517Y0069735D01*
X0128572Y0070333D02*
X0140267Y0070333D01*
X0139668Y0070932D02*
X0087834Y0070932D01*
X0085766Y0070932D02*
X0080334Y0070932D01*
X0079954Y0071089D02*
X0078646Y0071089D01*
X0077437Y0070588D01*
X0076512Y0069663D01*
X0076011Y0068454D01*
X0076011Y0067146D01*
X0076512Y0065937D01*
X0077437Y0065012D01*
X0078646Y0064511D01*
X0079954Y0064511D01*
X0081163Y0065012D01*
X0082088Y0065937D01*
X0082589Y0067146D01*
X0082589Y0068454D01*
X0082088Y0069663D01*
X0081163Y0070588D01*
X0079954Y0071089D01*
X0080471Y0072129D02*
X0063800Y0072129D01*
X0063800Y0072727D02*
X0079873Y0072727D01*
X0079274Y0073326D02*
X0063800Y0073326D01*
X0063800Y0073924D02*
X0078676Y0073924D01*
X0078077Y0074523D02*
X0063800Y0074523D01*
X0063800Y0075121D02*
X0077479Y0075121D01*
X0076880Y0075720D02*
X0063800Y0075720D01*
X0063800Y0076318D02*
X0076282Y0076318D01*
X0075683Y0076917D02*
X0063800Y0076917D01*
X0063800Y0077515D02*
X0075085Y0077515D01*
X0074800Y0078114D02*
X0063800Y0078114D01*
X0063800Y0078712D02*
X0074800Y0078712D01*
X0078266Y0070932D02*
X0063800Y0070932D01*
X0063800Y0071530D02*
X0139070Y0071530D01*
X0117151Y0079311D02*
X0109449Y0079311D01*
X0109121Y0079175D02*
X0110637Y0079803D01*
X0111797Y0080963D01*
X0112425Y0082479D01*
X0112425Y0084121D01*
X0111797Y0085637D01*
X0110637Y0086797D01*
X0109121Y0087425D01*
X0107479Y0087425D01*
X0105963Y0086797D01*
X0104803Y0085637D01*
X0104175Y0084121D01*
X0104175Y0082479D01*
X0104803Y0080963D01*
X0105963Y0079803D01*
X0107479Y0079175D01*
X0109121Y0079175D01*
X0110743Y0079909D02*
X0115857Y0079909D01*
X0115258Y0080508D02*
X0111342Y0080508D01*
X0111856Y0081106D02*
X0114744Y0081106D01*
X0114496Y0081705D02*
X0112104Y0081705D01*
X0112352Y0082303D02*
X0114248Y0082303D01*
X0114175Y0082902D02*
X0112425Y0082902D01*
X0112425Y0083501D02*
X0114175Y0083501D01*
X0114175Y0084099D02*
X0112425Y0084099D01*
X0112186Y0084698D02*
X0114414Y0084698D01*
X0114662Y0085296D02*
X0111938Y0085296D01*
X0111539Y0085895D02*
X0115061Y0085895D01*
X0115659Y0086493D02*
X0110941Y0086493D01*
X0109925Y0087092D02*
X0116675Y0087092D01*
X0108880Y0094950D02*
X0111650Y0097720D01*
X0113150Y0101341D01*
X0113150Y0105259D01*
X0111650Y0108880D01*
X0108880Y0111650D01*
X0105259Y0113150D01*
X0101341Y0113150D01*
X0097720Y0111650D01*
X0094950Y0108880D01*
X0093450Y0105259D01*
X0093450Y0101341D01*
X0094950Y0097720D01*
X0097720Y0094950D01*
X0101341Y0093450D01*
X0105259Y0093450D01*
X0108880Y0094950D01*
X0108693Y0094872D02*
X0200830Y0094872D01*
X0200793Y0094274D02*
X0107248Y0094274D01*
X0105803Y0093675D02*
X0200756Y0093675D01*
X0200719Y0093077D02*
X0077000Y0093077D01*
X0077000Y0093675D02*
X0100797Y0093675D01*
X0099352Y0094274D02*
X0077000Y0094274D01*
X0077000Y0094872D02*
X0097907Y0094872D01*
X0097199Y0095471D02*
X0077000Y0095471D01*
X0077000Y0096069D02*
X0096601Y0096069D01*
X0096002Y0096668D02*
X0077000Y0096668D01*
X0077000Y0097266D02*
X0095404Y0097266D01*
X0094890Y0097865D02*
X0077000Y0097865D01*
X0077000Y0098463D02*
X0081493Y0098463D01*
X0082274Y0098140D02*
X0084326Y0098140D01*
X0086223Y0098926D01*
X0087674Y0100377D01*
X0088460Y0102274D01*
X0088460Y0104326D01*
X0087674Y0106223D01*
X0086376Y0107521D01*
X0087092Y0107225D01*
X0089508Y0107225D01*
X0091741Y0108150D01*
X0093450Y0109859D01*
X0094375Y0112092D01*
X0094375Y0114508D01*
X0093450Y0116741D01*
X0091741Y0118450D01*
X0089508Y0119375D01*
X0087092Y0119375D01*
X0084859Y0118450D01*
X0083150Y0116741D01*
X0082225Y0114508D01*
X0082225Y0112092D01*
X0083150Y0109859D01*
X0084706Y0108303D01*
X0084326Y0108460D01*
X0082274Y0108460D01*
X0080377Y0107674D01*
X0078926Y0106223D01*
X0078140Y0104326D01*
X0078140Y0102274D01*
X0078926Y0100377D01*
X0080377Y0098926D01*
X0082274Y0098140D01*
X0080241Y0099062D02*
X0077000Y0099062D01*
X0077000Y0099660D02*
X0079642Y0099660D01*
X0079044Y0100259D02*
X0077000Y0100259D01*
X0077000Y0100857D02*
X0078727Y0100857D01*
X0078479Y0101456D02*
X0077000Y0101456D01*
X0077000Y0102054D02*
X0078231Y0102054D01*
X0078140Y0102653D02*
X0077000Y0102653D01*
X0077000Y0103251D02*
X0078140Y0103251D01*
X0078140Y0103850D02*
X0077000Y0103850D01*
X0077000Y0104448D02*
X0078191Y0104448D01*
X0078438Y0105047D02*
X0077000Y0105047D01*
X0077000Y0105645D02*
X0078686Y0105645D01*
X0078947Y0106244D02*
X0077000Y0106244D01*
X0077000Y0106842D02*
X0079545Y0106842D01*
X0080144Y0107441D02*
X0077000Y0107441D01*
X0077000Y0108039D02*
X0081258Y0108039D01*
X0083174Y0109835D02*
X0077000Y0109835D01*
X0077000Y0109237D02*
X0083772Y0109237D01*
X0084371Y0108638D02*
X0077000Y0108638D01*
X0077000Y0110434D02*
X0082912Y0110434D01*
X0082664Y0111032D02*
X0077000Y0111032D01*
X0077000Y0111631D02*
X0082416Y0111631D01*
X0082225Y0112229D02*
X0077000Y0112229D01*
X0077000Y0112828D02*
X0082225Y0112828D01*
X0082225Y0113426D02*
X0077000Y0113426D01*
X0077000Y0114025D02*
X0082225Y0114025D01*
X0082273Y0114623D02*
X0077000Y0114623D01*
X0077000Y0115222D02*
X0082520Y0115222D01*
X0082768Y0115820D02*
X0077000Y0115820D01*
X0077000Y0116419D02*
X0083016Y0116419D01*
X0083426Y0117017D02*
X0077000Y0117017D01*
X0077000Y0117616D02*
X0084024Y0117616D01*
X0084623Y0118214D02*
X0077000Y0118214D01*
X0077000Y0118813D02*
X0085734Y0118813D01*
X0090866Y0118813D02*
X0109196Y0118813D01*
X0108597Y0119411D02*
X0077000Y0119411D01*
X0077000Y0120010D02*
X0108087Y0120010D01*
X0108150Y0119859D02*
X0109859Y0118150D01*
X0112092Y0117225D01*
X0114508Y0117225D01*
X0116741Y0118150D01*
X0118450Y0119859D01*
X0119375Y0122092D01*
X0119375Y0124508D01*
X0118450Y0126741D01*
X0116741Y0128450D01*
X0114508Y0129375D01*
X0112092Y0129375D01*
X0109859Y0128450D01*
X0108150Y0126741D01*
X0107225Y0124508D01*
X0107225Y0122092D01*
X0108150Y0119859D01*
X0107839Y0120608D02*
X0077000Y0120608D01*
X0077000Y0121207D02*
X0107592Y0121207D01*
X0107344Y0121805D02*
X0077000Y0121805D01*
X0077000Y0122404D02*
X0107225Y0122404D01*
X0107225Y0123002D02*
X0077000Y0123002D01*
X0077000Y0123601D02*
X0107225Y0123601D01*
X0107225Y0124199D02*
X0077000Y0124199D01*
X0077000Y0124798D02*
X0107345Y0124798D01*
X0107593Y0125396D02*
X0077000Y0125396D01*
X0077000Y0125995D02*
X0107841Y0125995D01*
X0108089Y0126593D02*
X0077000Y0126593D01*
X0077000Y0127192D02*
X0108601Y0127192D01*
X0109199Y0127790D02*
X0077000Y0127790D01*
X0077000Y0128389D02*
X0109798Y0128389D01*
X0111156Y0128987D02*
X0077000Y0128987D01*
X0077000Y0129586D02*
X0197635Y0129586D01*
X0197825Y0128987D02*
X0115444Y0128987D01*
X0116802Y0128389D02*
X0198015Y0128389D01*
X0198206Y0127790D02*
X0117401Y0127790D01*
X0117999Y0127192D02*
X0198393Y0127192D01*
X0198505Y0126593D02*
X0118511Y0126593D01*
X0118759Y0125995D02*
X0198617Y0125995D01*
X0198729Y0125396D02*
X0119007Y0125396D01*
X0119255Y0124798D02*
X0198841Y0124798D01*
X0198952Y0124199D02*
X0119375Y0124199D01*
X0119375Y0123601D02*
X0199064Y0123601D01*
X0199176Y0123002D02*
X0153835Y0123002D01*
X0153248Y0123589D02*
X0151352Y0123589D01*
X0150011Y0122248D01*
X0150011Y0120352D01*
X0151352Y0119011D01*
X0153248Y0119011D01*
X0154589Y0120352D01*
X0154589Y0122248D01*
X0153248Y0123589D01*
X0154433Y0122404D02*
X0199288Y0122404D01*
X0199400Y0121805D02*
X0154589Y0121805D01*
X0154589Y0121207D02*
X0199512Y0121207D01*
X0199624Y0120608D02*
X0154589Y0120608D01*
X0154247Y0120010D02*
X0199736Y0120010D01*
X0199848Y0119411D02*
X0153648Y0119411D01*
X0150952Y0119411D02*
X0118003Y0119411D01*
X0118513Y0120010D02*
X0150353Y0120010D01*
X0150011Y0120608D02*
X0118761Y0120608D01*
X0119008Y0121207D02*
X0150011Y0121207D01*
X0150011Y0121805D02*
X0119256Y0121805D01*
X0119375Y0122404D02*
X0150167Y0122404D01*
X0150765Y0123002D02*
X0119375Y0123002D01*
X0117404Y0118813D02*
X0199959Y0118813D01*
X0200071Y0118214D02*
X0116806Y0118214D01*
X0115452Y0117616D02*
X0200183Y0117616D01*
X0200295Y0117017D02*
X0093174Y0117017D01*
X0093584Y0116419D02*
X0200407Y0116419D01*
X0200519Y0115820D02*
X0093832Y0115820D01*
X0094080Y0115222D02*
X0200615Y0115222D01*
X0200652Y0114623D02*
X0094327Y0114623D01*
X0094375Y0114025D02*
X0200689Y0114025D01*
X0200725Y0113426D02*
X0094375Y0113426D01*
X0094375Y0112828D02*
X0100562Y0112828D01*
X0099117Y0112229D02*
X0094375Y0112229D01*
X0094184Y0111631D02*
X0097701Y0111631D01*
X0097102Y0111032D02*
X0093936Y0111032D01*
X0093688Y0110434D02*
X0096504Y0110434D01*
X0095905Y0109835D02*
X0093426Y0109835D01*
X0092828Y0109237D02*
X0095307Y0109237D01*
X0094850Y0108638D02*
X0092229Y0108638D01*
X0091475Y0108039D02*
X0094602Y0108039D01*
X0094354Y0107441D02*
X0090030Y0107441D01*
X0087653Y0106244D02*
X0093858Y0106244D01*
X0094106Y0106842D02*
X0087055Y0106842D01*
X0086570Y0107441D02*
X0086456Y0107441D01*
X0087914Y0105645D02*
X0093610Y0105645D01*
X0093450Y0105047D02*
X0088162Y0105047D01*
X0088409Y0104448D02*
X0093450Y0104448D01*
X0093450Y0103850D02*
X0088460Y0103850D01*
X0088460Y0103251D02*
X0093450Y0103251D01*
X0093450Y0102653D02*
X0088460Y0102653D01*
X0088369Y0102054D02*
X0093450Y0102054D01*
X0093450Y0101456D02*
X0088121Y0101456D01*
X0087873Y0100857D02*
X0093650Y0100857D01*
X0093898Y0100259D02*
X0087556Y0100259D01*
X0086958Y0099660D02*
X0094146Y0099660D01*
X0094394Y0099062D02*
X0086359Y0099062D01*
X0085107Y0098463D02*
X0094642Y0098463D01*
X0097479Y0087425D02*
X0095963Y0086797D01*
X0094803Y0085637D01*
X0094175Y0084121D01*
X0094175Y0082479D01*
X0094803Y0080963D01*
X0095963Y0079803D01*
X0097479Y0079175D01*
X0099121Y0079175D01*
X0100637Y0079803D01*
X0101797Y0080963D01*
X0102425Y0082479D01*
X0102425Y0084121D01*
X0101797Y0085637D01*
X0100637Y0086797D01*
X0099121Y0087425D01*
X0097479Y0087425D01*
X0096675Y0087092D02*
X0089925Y0087092D01*
X0090941Y0086493D02*
X0095659Y0086493D01*
X0095061Y0085895D02*
X0091539Y0085895D01*
X0091938Y0085296D02*
X0094662Y0085296D01*
X0094414Y0084698D02*
X0092186Y0084698D01*
X0092425Y0084099D02*
X0094175Y0084099D01*
X0094175Y0083501D02*
X0092425Y0083501D01*
X0092425Y0082902D02*
X0094175Y0082902D01*
X0094248Y0082303D02*
X0092352Y0082303D01*
X0092104Y0081705D02*
X0094496Y0081705D01*
X0094744Y0081106D02*
X0091856Y0081106D01*
X0091342Y0080508D02*
X0095258Y0080508D01*
X0095857Y0079909D02*
X0090743Y0079909D01*
X0089449Y0079311D02*
X0097151Y0079311D01*
X0099449Y0079311D02*
X0107151Y0079311D01*
X0105857Y0079909D02*
X0100743Y0079909D01*
X0101342Y0080508D02*
X0105258Y0080508D01*
X0104744Y0081106D02*
X0101856Y0081106D01*
X0102104Y0081705D02*
X0104496Y0081705D01*
X0104248Y0082303D02*
X0102352Y0082303D01*
X0102425Y0082902D02*
X0104175Y0082902D01*
X0104175Y0083501D02*
X0102425Y0083501D01*
X0102425Y0084099D02*
X0104175Y0084099D01*
X0104414Y0084698D02*
X0102186Y0084698D01*
X0101938Y0085296D02*
X0104662Y0085296D01*
X0105061Y0085895D02*
X0101539Y0085895D01*
X0100941Y0086493D02*
X0105659Y0086493D01*
X0106675Y0087092D02*
X0099925Y0087092D01*
X0109401Y0095471D02*
X0200867Y0095471D01*
X0200904Y0096069D02*
X0109999Y0096069D01*
X0110598Y0096668D02*
X0200941Y0096668D01*
X0200978Y0097266D02*
X0111196Y0097266D01*
X0111710Y0097865D02*
X0201015Y0097865D01*
X0201052Y0098463D02*
X0125107Y0098463D01*
X0124326Y0098140D02*
X0126223Y0098926D01*
X0127674Y0100377D01*
X0128460Y0102274D01*
X0128460Y0104326D01*
X0127674Y0106223D01*
X0126223Y0107674D01*
X0124326Y0108460D01*
X0122274Y0108460D01*
X0120377Y0107674D01*
X0118926Y0106223D01*
X0118140Y0104326D01*
X0118140Y0102274D01*
X0118926Y0100377D01*
X0120377Y0098926D01*
X0122274Y0098140D01*
X0124326Y0098140D01*
X0126359Y0099062D02*
X0201089Y0099062D01*
X0201126Y0099660D02*
X0126958Y0099660D01*
X0127556Y0100259D02*
X0201162Y0100259D01*
X0201199Y0100857D02*
X0127873Y0100857D01*
X0128121Y0101456D02*
X0150907Y0101456D01*
X0151352Y0101011D02*
X0153248Y0101011D01*
X0154589Y0102352D01*
X0154589Y0104248D01*
X0153248Y0105589D01*
X0151352Y0105589D01*
X0150011Y0104248D01*
X0150011Y0102352D01*
X0151352Y0101011D01*
X0150309Y0102054D02*
X0128369Y0102054D01*
X0128460Y0102653D02*
X0150011Y0102653D01*
X0150011Y0103251D02*
X0128460Y0103251D01*
X0128460Y0103850D02*
X0150011Y0103850D01*
X0150211Y0104448D02*
X0128409Y0104448D01*
X0128162Y0105047D02*
X0150810Y0105047D01*
X0153790Y0105047D02*
X0201242Y0105047D01*
X0201205Y0105645D02*
X0127914Y0105645D01*
X0127653Y0106244D02*
X0201168Y0106244D01*
X0201131Y0106842D02*
X0127055Y0106842D01*
X0126456Y0107441D02*
X0201095Y0107441D01*
X0201058Y0108039D02*
X0125342Y0108039D01*
X0121258Y0108039D02*
X0111998Y0108039D01*
X0112246Y0107441D02*
X0120144Y0107441D01*
X0119545Y0106842D02*
X0112494Y0106842D01*
X0112742Y0106244D02*
X0118947Y0106244D01*
X0118686Y0105645D02*
X0112990Y0105645D01*
X0113150Y0105047D02*
X0118438Y0105047D01*
X0118191Y0104448D02*
X0113150Y0104448D01*
X0113150Y0103850D02*
X0118140Y0103850D01*
X0118140Y0103251D02*
X0113150Y0103251D01*
X0113150Y0102653D02*
X0118140Y0102653D01*
X0118231Y0102054D02*
X0113150Y0102054D01*
X0113150Y0101456D02*
X0118479Y0101456D01*
X0118727Y0100857D02*
X0112950Y0100857D01*
X0112702Y0100259D02*
X0119044Y0100259D01*
X0119642Y0099660D02*
X0112454Y0099660D01*
X0112206Y0099062D02*
X0120241Y0099062D01*
X0121493Y0098463D02*
X0111958Y0098463D01*
X0111750Y0108638D02*
X0201021Y0108638D01*
X0200984Y0109237D02*
X0111293Y0109237D01*
X0110695Y0109835D02*
X0200947Y0109835D01*
X0200910Y0110434D02*
X0110096Y0110434D01*
X0109498Y0111032D02*
X0200873Y0111032D01*
X0200836Y0111631D02*
X0108899Y0111631D01*
X0107483Y0112229D02*
X0200799Y0112229D01*
X0200762Y0112828D02*
X0106038Y0112828D01*
X0111148Y0117616D02*
X0092576Y0117616D01*
X0091977Y0118214D02*
X0109794Y0118214D01*
X0077000Y0130184D02*
X0197444Y0130184D01*
X0197254Y0130783D02*
X0077000Y0130783D01*
X0077000Y0131381D02*
X0197063Y0131381D01*
X0196873Y0131980D02*
X0077000Y0131980D01*
X0077000Y0132578D02*
X0196683Y0132578D01*
X0196492Y0133177D02*
X0077000Y0133177D01*
X0077000Y0133775D02*
X0196302Y0133775D01*
X0196111Y0134374D02*
X0077000Y0134374D01*
X0077000Y0134972D02*
X0195921Y0134972D01*
X0195731Y0135571D02*
X0077000Y0135571D01*
X0077000Y0136170D02*
X0195540Y0136170D01*
X0195350Y0136768D02*
X0077000Y0136768D01*
X0077000Y0137367D02*
X0195159Y0137367D01*
X0194969Y0137965D02*
X0077000Y0137965D01*
X0077000Y0138564D02*
X0194779Y0138564D01*
X0194525Y0139162D02*
X0077000Y0139162D01*
X0077000Y0139761D02*
X0194250Y0139761D01*
X0193975Y0140359D02*
X0077000Y0140359D01*
X0077000Y0140958D02*
X0164405Y0140958D01*
X0164852Y0140511D02*
X0166748Y0140511D01*
X0168089Y0141852D01*
X0168089Y0143748D01*
X0166748Y0145089D01*
X0164852Y0145089D01*
X0163511Y0143748D01*
X0163511Y0141852D01*
X0164852Y0140511D01*
X0163807Y0141556D02*
X0077000Y0141556D01*
X0077000Y0142155D02*
X0163511Y0142155D01*
X0163511Y0142753D02*
X0077000Y0142753D01*
X0077000Y0143352D02*
X0163511Y0143352D01*
X0163713Y0143950D02*
X0077000Y0143950D01*
X0077000Y0144549D02*
X0164312Y0144549D01*
X0167288Y0144549D02*
X0183312Y0144549D01*
X0183852Y0145089D02*
X0182511Y0143748D01*
X0182511Y0141852D01*
X0183852Y0140511D01*
X0185748Y0140511D01*
X0187089Y0141852D01*
X0187089Y0143748D01*
X0185748Y0145089D01*
X0183852Y0145089D01*
X0182713Y0143950D02*
X0167887Y0143950D01*
X0168089Y0143352D02*
X0182511Y0143352D01*
X0182511Y0142753D02*
X0168089Y0142753D01*
X0168089Y0142155D02*
X0182511Y0142155D01*
X0182807Y0141556D02*
X0167793Y0141556D01*
X0167195Y0140958D02*
X0183405Y0140958D01*
X0186195Y0140958D02*
X0193699Y0140958D01*
X0193424Y0141556D02*
X0186793Y0141556D01*
X0187089Y0142155D02*
X0193149Y0142155D01*
X0192873Y0142753D02*
X0187089Y0142753D01*
X0187089Y0143352D02*
X0192598Y0143352D01*
X0192323Y0143950D02*
X0186887Y0143950D01*
X0186288Y0144549D02*
X0192047Y0144549D01*
X0191772Y0145147D02*
X0077000Y0145147D01*
X0077000Y0145746D02*
X0191496Y0145746D01*
X0191221Y0146344D02*
X0077000Y0146344D01*
X0077000Y0146943D02*
X0190946Y0146943D01*
X0190670Y0147541D02*
X0077000Y0147541D01*
X0077000Y0148140D02*
X0190395Y0148140D01*
X0190120Y0148738D02*
X0077000Y0148738D01*
X0077000Y0149337D02*
X0189844Y0149337D01*
X0189529Y0149935D02*
X0174255Y0149935D01*
X0175700Y0150534D02*
X0189159Y0150534D01*
X0188788Y0151132D02*
X0177145Y0151132D01*
X0178024Y0151731D02*
X0188418Y0151731D01*
X0188047Y0152329D02*
X0178623Y0152329D01*
X0179221Y0152928D02*
X0187676Y0152928D01*
X0187306Y0153526D02*
X0179820Y0153526D01*
X0180331Y0154125D02*
X0186935Y0154125D01*
X0186565Y0154723D02*
X0180579Y0154723D01*
X0180827Y0155322D02*
X0186194Y0155322D01*
X0185824Y0155920D02*
X0181075Y0155920D01*
X0181323Y0156519D02*
X0185453Y0156519D01*
X0185082Y0157117D02*
X0181570Y0157117D01*
X0181700Y0157716D02*
X0184712Y0157716D01*
X0184341Y0158314D02*
X0181700Y0158314D01*
X0181700Y0158913D02*
X0183971Y0158913D01*
X0183600Y0159511D02*
X0181700Y0159511D01*
X0181700Y0160110D02*
X0183200Y0160110D01*
X0182718Y0160708D02*
X0181700Y0160708D01*
X0181643Y0161307D02*
X0182237Y0161307D01*
X0181755Y0161905D02*
X0181395Y0161905D01*
X0181273Y0162504D02*
X0181147Y0162504D01*
X0176939Y0167891D02*
X0176124Y0167891D01*
X0165379Y0152928D02*
X0075283Y0152928D01*
X0075882Y0152329D02*
X0165977Y0152329D01*
X0166576Y0151731D02*
X0076480Y0151731D01*
X0077000Y0151132D02*
X0167455Y0151132D01*
X0168900Y0150534D02*
X0077000Y0150534D01*
X0077000Y0149935D02*
X0170345Y0149935D01*
X0162726Y0181058D02*
X0043642Y0181058D01*
X0044379Y0181656D02*
X0161933Y0181656D01*
X0161140Y0182255D02*
X0045282Y0182255D01*
X0046185Y0182853D02*
X0160348Y0182853D01*
X0159555Y0183452D02*
X0047089Y0183452D01*
X0047992Y0184050D02*
X0158763Y0184050D01*
X0157970Y0184649D02*
X0048895Y0184649D01*
X0049798Y0185247D02*
X0157091Y0185247D01*
X0156054Y0185846D02*
X0151583Y0185846D01*
X0152182Y0186444D02*
X0155018Y0186444D01*
X0153981Y0187043D02*
X0152589Y0187043D01*
X0152589Y0187641D02*
X0152944Y0187641D01*
X0149017Y0185846D02*
X0135083Y0185846D01*
X0134748Y0185511D02*
X0136089Y0186852D01*
X0136089Y0188748D01*
X0134748Y0190089D01*
X0132852Y0190089D01*
X0131511Y0188748D01*
X0131511Y0186852D01*
X0132852Y0185511D01*
X0134748Y0185511D01*
X0135682Y0186444D02*
X0148418Y0186444D01*
X0148011Y0187043D02*
X0136089Y0187043D01*
X0136089Y0187641D02*
X0148011Y0187641D01*
X0148011Y0188240D02*
X0136089Y0188240D01*
X0135999Y0188839D02*
X0148101Y0188839D01*
X0148700Y0189437D02*
X0135400Y0189437D01*
X0134802Y0190036D02*
X0148798Y0190036D01*
X0147761Y0190634D02*
X0059136Y0190634D01*
X0060337Y0191233D02*
X0146622Y0191233D01*
X0145208Y0191831D02*
X0061539Y0191831D01*
X0062741Y0192430D02*
X0143794Y0192430D01*
X0142380Y0193028D02*
X0063943Y0193028D01*
X0065172Y0193627D02*
X0140966Y0193627D01*
X0139552Y0194225D02*
X0066870Y0194225D01*
X0068569Y0194824D02*
X0138138Y0194824D01*
X0136724Y0195422D02*
X0070267Y0195422D01*
X0071966Y0196021D02*
X0135029Y0196021D01*
X0132925Y0196619D02*
X0073664Y0196619D01*
X0075362Y0197218D02*
X0130821Y0197218D01*
X0128718Y0197816D02*
X0077422Y0197816D01*
X0080155Y0198415D02*
X0126614Y0198415D01*
X0124511Y0199013D02*
X0082888Y0199013D01*
X0085621Y0199612D02*
X0120851Y0199612D01*
X0116995Y0200210D02*
X0088482Y0200210D01*
X0088260Y0200190D02*
X0088260Y0200190D01*
X0094941Y0200809D02*
X0113139Y0200809D01*
X0131601Y0188839D02*
X0074999Y0188839D01*
X0075089Y0188748D02*
X0073748Y0190089D01*
X0071852Y0190089D01*
X0070511Y0188748D01*
X0070511Y0186852D01*
X0071852Y0185511D01*
X0073748Y0185511D01*
X0075089Y0186852D01*
X0075089Y0188748D01*
X0075089Y0188240D02*
X0131511Y0188240D01*
X0131511Y0187641D02*
X0075089Y0187641D01*
X0075089Y0187043D02*
X0131511Y0187043D01*
X0131918Y0186444D02*
X0074682Y0186444D01*
X0074083Y0185846D02*
X0132517Y0185846D01*
X0132200Y0189437D02*
X0074400Y0189437D01*
X0073802Y0190036D02*
X0132798Y0190036D01*
X0096624Y0179861D02*
X0095476Y0179861D01*
X0095916Y0172679D02*
X0096184Y0172679D01*
X0096783Y0172080D02*
X0095317Y0172080D01*
X0071517Y0185846D02*
X0065083Y0185846D01*
X0064748Y0185511D02*
X0066089Y0186852D01*
X0066089Y0188748D01*
X0064748Y0190089D01*
X0062852Y0190089D01*
X0061511Y0188748D01*
X0061511Y0186852D01*
X0062852Y0185511D01*
X0064748Y0185511D01*
X0065682Y0186444D02*
X0070918Y0186444D01*
X0070511Y0187043D02*
X0066089Y0187043D01*
X0066089Y0187641D02*
X0070511Y0187641D01*
X0070511Y0188240D02*
X0066089Y0188240D01*
X0065999Y0188839D02*
X0070601Y0188839D01*
X0071200Y0189437D02*
X0065400Y0189437D01*
X0064802Y0190036D02*
X0071798Y0190036D01*
X0062798Y0190036D02*
X0057934Y0190036D01*
X0056732Y0189437D02*
X0062200Y0189437D01*
X0061601Y0188839D02*
X0055530Y0188839D01*
X0054328Y0188240D02*
X0061511Y0188240D01*
X0061511Y0187641D02*
X0053411Y0187641D01*
X0052508Y0187043D02*
X0061511Y0187043D01*
X0061918Y0186444D02*
X0051605Y0186444D01*
X0050702Y0185846D02*
X0062517Y0185846D01*
X0032085Y0110434D02*
X0005572Y0110434D01*
X0005498Y0109835D02*
X0031486Y0109835D01*
X0031200Y0109237D02*
X0005436Y0109237D01*
X0005436Y0108638D02*
X0031200Y0108638D01*
X0031200Y0108039D02*
X0005436Y0108039D01*
X0005436Y0107441D02*
X0031200Y0107441D01*
X0031200Y0106842D02*
X0005436Y0106842D01*
X0005436Y0106244D02*
X0031200Y0106244D01*
X0031200Y0105645D02*
X0005436Y0105645D01*
X0005436Y0105047D02*
X0031200Y0105047D01*
X0031200Y0104448D02*
X0005436Y0104448D01*
X0005436Y0103850D02*
X0031200Y0103850D01*
X0031200Y0103251D02*
X0005436Y0103251D01*
X0005436Y0102653D02*
X0031200Y0102653D01*
X0031200Y0102054D02*
X0005436Y0102054D01*
X0005436Y0101456D02*
X0031200Y0101456D01*
X0031200Y0100857D02*
X0005436Y0100857D01*
X0005436Y0100259D02*
X0031200Y0100259D01*
X0031200Y0099660D02*
X0005436Y0099660D01*
X0005436Y0099062D02*
X0031200Y0099062D01*
X0031200Y0098463D02*
X0005436Y0098463D01*
X0005436Y0097865D02*
X0031200Y0097865D01*
X0031200Y0097266D02*
X0005436Y0097266D01*
X0005510Y0096668D02*
X0031200Y0096668D01*
X0031682Y0096069D02*
X0005584Y0096069D01*
X0005658Y0095471D02*
X0032281Y0095471D01*
X0063800Y0070333D02*
X0077182Y0070333D01*
X0076583Y0069735D02*
X0063800Y0069735D01*
X0063800Y0069136D02*
X0076294Y0069136D01*
X0076046Y0068538D02*
X0063800Y0068538D01*
X0063800Y0067939D02*
X0076011Y0067939D01*
X0076011Y0067341D02*
X0063800Y0067341D01*
X0063800Y0066742D02*
X0076178Y0066742D01*
X0076426Y0066144D02*
X0063800Y0066144D01*
X0063800Y0065545D02*
X0076903Y0065545D01*
X0077594Y0064947D02*
X0063800Y0064947D01*
X0081006Y0064947D02*
X0085094Y0064947D01*
X0084403Y0065545D02*
X0081696Y0065545D01*
X0082174Y0066144D02*
X0083926Y0066144D01*
X0083678Y0066742D02*
X0082422Y0066742D01*
X0082589Y0067341D02*
X0083511Y0067341D01*
X0083511Y0067939D02*
X0082589Y0067939D01*
X0082554Y0068538D02*
X0083546Y0068538D01*
X0083794Y0069136D02*
X0082306Y0069136D01*
X0082017Y0069735D02*
X0084083Y0069735D01*
X0084682Y0070333D02*
X0081418Y0070333D01*
X0077000Y0088289D02*
X0183052Y0088289D01*
X0183650Y0088887D02*
X0077000Y0088887D01*
X0077000Y0089486D02*
X0200277Y0089486D01*
X0200389Y0090084D02*
X0077000Y0090084D01*
X0077000Y0090683D02*
X0200501Y0090683D01*
X0200609Y0091281D02*
X0077000Y0091281D01*
X0077000Y0091880D02*
X0200646Y0091880D01*
X0200683Y0092478D02*
X0077000Y0092478D01*
X0032110Y0056568D02*
X0017313Y0056568D01*
X0017635Y0055969D02*
X0030665Y0055969D01*
X0029221Y0055370D02*
X0017956Y0055370D01*
X0018278Y0054772D02*
X0028478Y0054772D01*
X0027880Y0054173D02*
X0018599Y0054173D01*
X0018920Y0053575D02*
X0027281Y0053575D01*
X0026683Y0052976D02*
X0019242Y0052976D01*
X0019563Y0052378D02*
X0026229Y0052378D01*
X0025981Y0051779D02*
X0019885Y0051779D01*
X0020292Y0051181D02*
X0025733Y0051181D01*
X0025485Y0050582D02*
X0020716Y0050582D01*
X0021139Y0049984D02*
X0025237Y0049984D01*
X0024989Y0049385D02*
X0021563Y0049385D01*
X0021987Y0048787D02*
X0024900Y0048787D01*
X0024900Y0048188D02*
X0022410Y0048188D01*
X0022834Y0047590D02*
X0024900Y0047590D01*
X0024900Y0046991D02*
X0023258Y0046991D01*
X0023681Y0046393D02*
X0024900Y0046393D01*
X0024900Y0045794D02*
X0024105Y0045794D01*
X0024529Y0045196D02*
X0024997Y0045196D01*
X0024952Y0044597D02*
X0025245Y0044597D01*
X0025376Y0043999D02*
X0025493Y0043999D01*
X0035373Y0032627D02*
X0170998Y0032627D01*
X0170381Y0032029D02*
X0036071Y0032029D01*
X0036770Y0031430D02*
X0169764Y0031430D01*
X0169147Y0030832D02*
X0037469Y0030832D01*
X0038167Y0030233D02*
X0168529Y0030233D01*
X0167912Y0029634D02*
X0038866Y0029634D01*
X0039564Y0029036D02*
X0167295Y0029036D01*
X0166560Y0028437D02*
X0040263Y0028437D01*
X0040962Y0027839D02*
X0165767Y0027839D01*
X0164975Y0027240D02*
X0041660Y0027240D01*
X0042359Y0026642D02*
X0164182Y0026642D01*
X0163389Y0026043D02*
X0043057Y0026043D01*
X0043756Y0025445D02*
X0162597Y0025445D01*
X0161804Y0024846D02*
X0044526Y0024846D01*
X0045429Y0024248D02*
X0161012Y0024248D01*
X0160219Y0023649D02*
X0046332Y0023649D01*
X0047235Y0023051D02*
X0159427Y0023051D01*
X0158634Y0022452D02*
X0048139Y0022452D01*
X0049042Y0021854D02*
X0157842Y0021854D01*
X0156923Y0021255D02*
X0049945Y0021255D01*
X0050848Y0020657D02*
X0155886Y0020657D01*
X0154849Y0020058D02*
X0051752Y0020058D01*
X0052655Y0019460D02*
X0153813Y0019460D01*
X0152776Y0018861D02*
X0053558Y0018861D01*
X0054523Y0018263D02*
X0151739Y0018263D01*
X0150703Y0017664D02*
X0055725Y0017664D01*
X0056927Y0017066D02*
X0149666Y0017066D01*
X0148629Y0016467D02*
X0058129Y0016467D01*
X0059331Y0015869D02*
X0081725Y0015869D01*
X0081091Y0015606D02*
X0079994Y0014509D01*
X0079400Y0013076D01*
X0079400Y0011524D01*
X0079994Y0010091D01*
X0081091Y0008994D01*
X0082524Y0008400D01*
X0084076Y0008400D01*
X0085509Y0008994D01*
X0086606Y0010091D01*
X0087200Y0011524D01*
X0087200Y0013076D01*
X0086606Y0014509D01*
X0085509Y0015606D01*
X0084076Y0016200D01*
X0082524Y0016200D01*
X0081091Y0015606D01*
X0080755Y0015270D02*
X0060533Y0015270D01*
X0061735Y0014672D02*
X0080156Y0014672D01*
X0079813Y0014073D02*
X0062937Y0014073D01*
X0064139Y0013475D02*
X0079565Y0013475D01*
X0079400Y0012876D02*
X0065448Y0012876D01*
X0067146Y0012278D02*
X0079400Y0012278D01*
X0079400Y0011679D02*
X0068845Y0011679D01*
X0070543Y0011081D02*
X0079584Y0011081D01*
X0079832Y0010482D02*
X0072241Y0010482D01*
X0073940Y0009884D02*
X0080201Y0009884D01*
X0080799Y0009285D02*
X0075638Y0009285D01*
X0077866Y0008687D02*
X0081832Y0008687D01*
X0080599Y0008088D02*
X0126273Y0008088D01*
X0125509Y0008994D02*
X0126606Y0010091D01*
X0127200Y0011524D01*
X0127200Y0013076D01*
X0126606Y0014509D01*
X0125509Y0015606D01*
X0124076Y0016200D01*
X0122524Y0016200D01*
X0121091Y0015606D01*
X0119994Y0014509D01*
X0119400Y0013076D01*
X0119400Y0011524D01*
X0119994Y0010091D01*
X0121091Y0008994D01*
X0122524Y0008400D01*
X0124076Y0008400D01*
X0125509Y0008994D01*
X0125801Y0009285D02*
X0130480Y0009285D01*
X0132583Y0009884D02*
X0126399Y0009884D01*
X0126768Y0010482D02*
X0134687Y0010482D01*
X0136494Y0011081D02*
X0127016Y0011081D01*
X0127200Y0011679D02*
X0137909Y0011679D01*
X0139323Y0012278D02*
X0127200Y0012278D01*
X0127200Y0012876D02*
X0140737Y0012876D01*
X0142151Y0013475D02*
X0127035Y0013475D01*
X0126787Y0014073D02*
X0143565Y0014073D01*
X0144979Y0014672D02*
X0126444Y0014672D01*
X0125845Y0015270D02*
X0146393Y0015270D01*
X0147593Y0015869D02*
X0124875Y0015869D01*
X0121725Y0015869D02*
X0114875Y0015869D01*
X0115509Y0015606D02*
X0114076Y0016200D01*
X0112524Y0016200D01*
X0111091Y0015606D01*
X0109994Y0014509D01*
X0109400Y0013076D01*
X0109400Y0011524D01*
X0109994Y0010091D01*
X0111091Y0008994D01*
X0112524Y0008400D01*
X0114076Y0008400D01*
X0115509Y0008994D01*
X0116606Y0010091D01*
X0117200Y0011524D01*
X0117200Y0013076D01*
X0116606Y0014509D01*
X0115509Y0015606D01*
X0115845Y0015270D02*
X0120755Y0015270D01*
X0120156Y0014672D02*
X0116444Y0014672D01*
X0116787Y0014073D02*
X0119813Y0014073D01*
X0119565Y0013475D02*
X0117035Y0013475D01*
X0117200Y0012876D02*
X0119400Y0012876D01*
X0119400Y0012278D02*
X0117200Y0012278D01*
X0117200Y0011679D02*
X0119400Y0011679D01*
X0119584Y0011081D02*
X0117016Y0011081D01*
X0116768Y0010482D02*
X0119832Y0010482D01*
X0120201Y0009884D02*
X0116399Y0009884D01*
X0115801Y0009285D02*
X0120799Y0009285D01*
X0121832Y0008687D02*
X0114768Y0008687D01*
X0116369Y0006293D02*
X0089531Y0006293D01*
X0091091Y0008994D02*
X0089994Y0010091D01*
X0089400Y0011524D01*
X0089400Y0013076D01*
X0089994Y0014509D01*
X0091091Y0015606D01*
X0092524Y0016200D01*
X0094076Y0016200D01*
X0095509Y0015606D01*
X0096606Y0014509D01*
X0097200Y0013076D01*
X0097200Y0011524D01*
X0096606Y0010091D01*
X0095509Y0008994D01*
X0094076Y0008400D01*
X0092524Y0008400D01*
X0091091Y0008994D01*
X0090799Y0009285D02*
X0085801Y0009285D01*
X0086399Y0009884D02*
X0090201Y0009884D01*
X0089832Y0010482D02*
X0086768Y0010482D01*
X0087016Y0011081D02*
X0089584Y0011081D01*
X0089400Y0011679D02*
X0087200Y0011679D01*
X0087200Y0012278D02*
X0089400Y0012278D01*
X0089400Y0012876D02*
X0087200Y0012876D01*
X0087035Y0013475D02*
X0089565Y0013475D01*
X0089813Y0014073D02*
X0086787Y0014073D01*
X0086444Y0014672D02*
X0090156Y0014672D01*
X0090755Y0015270D02*
X0085845Y0015270D01*
X0084875Y0015869D02*
X0091725Y0015869D01*
X0094875Y0015869D02*
X0101725Y0015869D01*
X0101091Y0015606D02*
X0102524Y0016200D01*
X0104076Y0016200D01*
X0105509Y0015606D01*
X0106606Y0014509D01*
X0107200Y0013076D01*
X0107200Y0011524D01*
X0106606Y0010091D01*
X0105509Y0008994D01*
X0104076Y0008400D01*
X0102524Y0008400D01*
X0101091Y0008994D01*
X0099994Y0010091D01*
X0099400Y0011524D01*
X0099400Y0013076D01*
X0099994Y0014509D01*
X0101091Y0015606D01*
X0100755Y0015270D02*
X0095845Y0015270D01*
X0096444Y0014672D02*
X0100156Y0014672D01*
X0099813Y0014073D02*
X0096787Y0014073D01*
X0097035Y0013475D02*
X0099565Y0013475D01*
X0099400Y0012876D02*
X0097200Y0012876D01*
X0097200Y0012278D02*
X0099400Y0012278D01*
X0099400Y0011679D02*
X0097200Y0011679D01*
X0097016Y0011081D02*
X0099584Y0011081D01*
X0099832Y0010482D02*
X0096768Y0010482D01*
X0096399Y0009884D02*
X0100201Y0009884D01*
X0100799Y0009285D02*
X0095801Y0009285D01*
X0094768Y0008687D02*
X0101832Y0008687D01*
X0104768Y0008687D02*
X0111832Y0008687D01*
X0110799Y0009285D02*
X0105801Y0009285D01*
X0106399Y0009884D02*
X0110201Y0009884D01*
X0109832Y0010482D02*
X0106768Y0010482D01*
X0107016Y0011081D02*
X0109584Y0011081D01*
X0109400Y0011679D02*
X0107200Y0011679D01*
X0107200Y0012278D02*
X0109400Y0012278D01*
X0109400Y0012876D02*
X0107200Y0012876D01*
X0107035Y0013475D02*
X0109565Y0013475D01*
X0109813Y0014073D02*
X0106787Y0014073D01*
X0106444Y0014672D02*
X0110156Y0014672D01*
X0110755Y0015270D02*
X0105845Y0015270D01*
X0104875Y0015869D02*
X0111725Y0015869D01*
X0120224Y0006891D02*
X0086065Y0006891D01*
X0084768Y0008687D02*
X0091832Y0008687D01*
X0095990Y0005694D02*
X0112513Y0005694D01*
X0124080Y0007490D02*
X0083332Y0007490D01*
X0074046Y0039809D02*
X0151554Y0039809D01*
X0150955Y0040408D02*
X0074645Y0040408D01*
X0075089Y0041006D02*
X0150511Y0041006D01*
X0150511Y0041605D02*
X0139716Y0041605D01*
X0140315Y0042203D02*
X0150511Y0042203D01*
X0150565Y0042802D02*
X0140913Y0042802D01*
X0141512Y0043400D02*
X0151163Y0043400D01*
X0151762Y0043999D02*
X0142110Y0043999D01*
X0139597Y0044597D02*
X0074641Y0044597D01*
X0075253Y0043999D02*
X0138999Y0043999D01*
X0174444Y0038014D02*
X0176379Y0038014D01*
X0176861Y0038612D02*
X0175889Y0038612D01*
X0177334Y0039211D02*
X0177342Y0039211D01*
X0181107Y0043999D02*
X0181195Y0043999D01*
X0181355Y0044597D02*
X0181677Y0044597D01*
X0181603Y0045196D02*
X0182159Y0045196D01*
X0181700Y0045794D02*
X0182640Y0045794D01*
X0183122Y0046393D02*
X0181700Y0046393D01*
X0181700Y0046991D02*
X0183540Y0046991D01*
X0183910Y0047590D02*
X0181700Y0047590D01*
X0181700Y0048188D02*
X0184281Y0048188D01*
X0184652Y0048787D02*
X0181700Y0048787D01*
X0181611Y0049385D02*
X0185022Y0049385D01*
X0185393Y0049984D02*
X0181363Y0049984D01*
X0181115Y0050582D02*
X0185763Y0050582D01*
X0186134Y0051181D02*
X0180867Y0051181D01*
X0180619Y0051779D02*
X0186505Y0051779D01*
X0186875Y0052378D02*
X0180371Y0052378D01*
X0179917Y0052976D02*
X0187246Y0052976D01*
X0187616Y0053575D02*
X0179319Y0053575D01*
X0178720Y0054173D02*
X0187987Y0054173D01*
X0188357Y0054772D02*
X0178122Y0054772D01*
X0177379Y0055370D02*
X0188728Y0055370D01*
X0189099Y0055969D02*
X0175935Y0055969D01*
X0174490Y0056568D02*
X0189469Y0056568D01*
X0185935Y0084698D02*
X0199382Y0084698D01*
X0199494Y0085296D02*
X0186533Y0085296D01*
X0187089Y0085895D02*
X0199606Y0085895D01*
X0199717Y0086493D02*
X0187089Y0086493D01*
X0187089Y0087092D02*
X0199829Y0087092D01*
X0199941Y0087690D02*
X0187089Y0087690D01*
X0186548Y0088289D02*
X0200053Y0088289D01*
X0200165Y0088887D02*
X0185950Y0088887D01*
X0201236Y0101456D02*
X0153693Y0101456D01*
X0154291Y0102054D02*
X0201273Y0102054D01*
X0201310Y0102653D02*
X0154589Y0102653D01*
X0154589Y0103251D02*
X0201347Y0103251D01*
X0201316Y0103850D02*
X0154589Y0103850D01*
X0154389Y0104448D02*
X0201279Y0104448D01*
X0128376Y0008687D02*
X0124768Y0008687D01*
X0071554Y0039809D02*
X0040103Y0039809D01*
X0040701Y0040408D02*
X0070955Y0040408D01*
X0070511Y0041006D02*
X0041300Y0041006D01*
D17*
X0071800Y0144300D03*
X0071800Y0149300D03*
X0090300Y0164300D03*
X0153800Y0148800D03*
X0153800Y0144300D03*
M02*
