%
M48
M72
T01C0.0138
T02C0.0197
T03C0.0217
T04C0.0400
T05C0.0430
T06C0.0672
T07C0.0690
T08C0.1300
T09C0.1610
%
T01
X4830Y6730
X6780Y5130
X7180Y5130
X7280Y4180
X8680Y5130
X10230Y4630
X11930Y5130
X12730Y5130
X12730Y6730
X11930Y6730
X11330Y6980
X13530Y6730
X15280Y4180
X16530Y3030
X19230Y6730
X18480Y8680
X15230Y10330
X15230Y12130
X16580Y14280
X18480Y14280
X19680Y12780
X16480Y17280
X15030Y18780
X13380Y18780
X12430Y17280
X9980Y15230
X8480Y17280
X9430Y17430
X9430Y17780
X9780Y17780
X9780Y17430
X7280Y18780
X6380Y18780
X5680Y15730
X7080Y15730
X4080Y14280
X5280Y12780
X4080Y8680
X7930Y6780
X8680Y6780
X11880Y3330
X8030Y2230
T02
X11030Y16130
T03
X9030Y16430
X7180Y14930
X7180Y14430
X15380Y14430
X15380Y14880
T04
X12330Y1230
X11330Y1230
X10330Y1230
X9330Y1230
X8330Y1230
T05
X8830Y8330
X9830Y8330
X10830Y8330
X11830Y8330
T06
X12330Y10330
X8330Y10330
T07
X8830Y11330
X11330Y12330
T08
X3430Y4730
X3430Y15930
X17230Y15930
X17230Y4730
T09
X10330Y10330
M30
